<?xml version="1.0" encoding="utf-8"?>
<!-- Generator: Adobe Illustrator 25.4.1, SVG Export Plug-In . SVG Version: 6.00 Build 0)  -->
<svg version="1.1" id="Layer_1" xmlns="http://www.w3.org/2000/svg" xmlns:xlink="http://www.w3.org/1999/xlink" x="0px" y="0px"
	 viewBox="0 0 595 595.28" style="enable-background:new 0 0 595 595.28;" xml:space="preserve">
<style type="text/css">
	.st0{fill:#F1ECE1;}
	.st1{fill:#EF6F37;}
	.st2{fill:#FFEEC5;}
</style>
<rect x="728.9" y="-33.61" class="st0" width="594.69" height="594.69"/>
<rect x="-0.31" y="-0.62" class="st0" width="594.5" height="594.5"/>
<path class="st1" d="M557.76,303.3c0,30.49-13.69,57.93-22.56,85.27c-9.01,27.77-14.42,58.79-31.02,81.65
	c-16.26,22.39-41.74,34.1-63.77,50.18c-21.23,15.49-41.1,37.31-66.33,45.53c-23.98,7.81-50.71,1.59-77.13,1.59
	c-26.42,0-53.15,6.22-77.13-1.59c-25.23-8.22-45.1-30.04-66.33-45.53c-22.04-16.09-47.51-27.8-63.77-50.18
	c-16.6-22.85-22-53.88-31.02-81.65c-8.87-27.33-22.56-54.77-22.56-85.27c0-30.49,13.69-57.93,22.56-85.27
	c9.01-27.77,14.42-58.79,31.02-81.65c16.26-22.39,41.74-34.1,63.77-50.18c21.23-15.49,41.1-37.31,66.33-45.53
	c23.98-7.81,50.71-1.59,77.13-1.59c26.42,0,53.15-6.22,77.13,1.59c25.23,8.22,45.1,30.04,66.33,45.53
	c22.04,16.09,47.51,27.8,63.77,50.18c16.6,22.85,22,53.88,31.02,81.65C544.07,245.36,557.76,272.8,557.76,303.3z"/>
<g>
	<path class="st2" d="M104.3,248.32c1.87-0.97,3.77-1.39,5.71-1.25c1.94,0.14,3.83,0.68,5.69,1.64c1.85,0.96,3.63,2.21,5.34,3.78
		c1.71,1.56,3.28,3.19,4.72,4.87c3.47,4.06,6.82,8.98,10.04,14.77c0.03-1.27,0.22-2.8,0.56-4.57c0.24-2.69,1.14-6.82,2.7-12.38
		c0.77-2.69,1.66-5.31,2.68-7.88c1.02-2.56,2.43-4.9,4.21-7c1.78-2.1,4.01-3.82,6.69-5.16c2.68-1.34,6.07-2.13,10.18-2.38
		c3.9-0.34,7.3,0.12,10.2,1.38c2.9,1.26,5.44,2.97,7.64,5.11c2.2,2.15,4.19,4.56,5.97,7.23c1.78,2.67,3.55,5.22,5.32,7.65
		c3.24,5,5.3,7.83,6.2,8.47c0.9,0.64,1.1-1.81,0.63-7.35c-0.35-2.96-0.42-6.42-0.21-10.38c0.21-3.96,0.87-7.7,1.98-11.2
		c1.11-3.51,2.72-6.41,4.83-8.72c2.1-2.31,4.91-3.33,8.43-3.07c2.39,0.23,4.91,1,7.57,2.31c2.65,1.31,5.29,3.12,7.92,5.44
		c2.62,2.31,5.15,5.03,7.6,8.14c2.44,3.12,4.66,6.56,6.66,10.33c2.09,3.85,3.98,6.97,5.67,9.38c1.7,2.41,3.36,4.17,4.99,5.29
		c1.63,1.12,3.32,1.52,5.06,1.21c1.74-0.31,3.7-1.27,5.88-2.86c1.64-1.22,3.02-1.48,4.15-0.77c1.13,0.71,1.69,1.87,1.68,3.46
		c-0.01,1.59-0.74,3.42-2.18,5.49c-1.45,2.07-3.84,3.86-7.16,5.37c-3.18,1.45-6.44,1.96-9.77,1.52c-3.33-0.43-6.59-1.41-9.77-2.93
		c-3.18-1.52-6.25-3.41-9.2-5.66c-2.95-2.26-5.65-4.58-8.1-6.97c-2.45-2.39-4.56-4.6-6.32-6.62c-1.76-2.02-3.11-3.56-4.04-4.64
		c-1.44-1.56-2.37-1.57-2.79-0.04c-0.42,1.54-0.62,3.82-0.62,6.85c0,3.03,0.08,6.37,0.23,10.02c0.15,3.65,0.14,6.89-0.03,9.73
		c-0.24,2.81-0.64,5.57-1.19,8.28c-0.55,2.71-1.49,4.97-2.82,6.77c-1.33,1.8-3.21,2.93-5.66,3.38c-2.44,0.45-5.66-0.18-9.63-1.91
		c-2.66-1.13-5.23-2.94-7.7-5.45c-2.47-2.5-4.83-5.3-7.09-8.38c-2.25-3.08-4.38-6.27-6.37-9.56c-1.99-3.29-3.78-6.42-5.37-9.39
		c-1.59-2.97-2.98-5.49-4.18-7.58c-1.21-2.09-2.15-3.52-2.84-4.29c-2.2-1.94-4.4-1.82-6.62,0.36c-2.22,2.18-4.37,6.68-6.44,13.5
		c-1.08,3.31-1.19,7.2-0.33,11.67c0.86,4.47,2.06,8.87,3.6,13.2c1.54,4.34,3.14,8.27,4.79,11.81c1.66,3.53,2.83,6.08,3.5,7.63
		c0.68,1.55,0.78,3.17,0.31,4.85c-0.47,1.68-1.38,3.19-2.74,4.53c-1.35,1.34-3.14,2.36-5.35,3.07c-2.21,0.71-4.71,0.77-7.49,0.17
		c-1.71-0.42-4.04-2.33-6.98-5.73c-2.95-3.4-6.01-7.59-9.19-12.6c-3.18-5-6.3-10.38-9.37-16.15c-3.07-5.77-5.68-11.18-7.82-16.23
		c-2.14-5.05-3.65-9.4-4.51-13.06C102.89,251.17,103.07,249,104.3,248.32z"/>
	<path class="st2" d="M304.07,202.36c-0.24,1.44-1.1,2.68-2.57,3.73c-1.47,1.05-3.17,2.13-5.09,3.26c-1.92,1.13-3.89,2.37-5.91,3.72
		c-2.02,1.35-3.67,3.08-4.95,5.19c-2.02,3.36-3.34,7.3-3.97,11.84c-0.63,4.54-0.81,8.85-0.53,12.95c0.28,4.1,0.97,7.6,2.08,10.5
		c1.1,2.9,2.35,4.31,3.74,4.23c1.77-0.1,3.57-1.04,5.4-2.82c1.83-1.78,3.45-3.81,4.86-6.09c1.4-2.28,2.54-4.59,3.4-6.95
		c0.86-2.36,1.26-4.16,1.19-5.42c-0.07-1.2-0.22-2.89-0.44-5.08c-0.23-2.18-0.32-4.34-0.28-6.49c0.04-2.14,0.26-4.01,0.66-5.59
		c0.39-1.59,1.2-2.47,2.43-2.65c1.17-0.18,2.6-0.55,4.29-1.11c1.69-0.56,3.3-0.71,4.85-0.45c1.55,0.27,2.84,1.29,3.87,3.07
		c1.04,1.78,1.58,4.92,1.61,9.41c0.04,4.61,0.46,8.79,1.26,12.56c0.8,3.77,1.83,7.06,3.09,9.86c1.26,2.81,2.71,5.03,4.36,6.66
		c1.65,1.63,3.36,2.56,5.15,2.79c2.44,0.35,4.43,0.17,5.97-0.55s2.81-1.54,3.81-2.44c1-0.91,1.86-1.71,2.6-2.42
		c0.74-0.7,1.44-0.91,2.1-0.62c0.77,0.28,1.01,1.22,0.72,2.8c-0.29,1.58-1.06,3.34-2.32,5.28c-1.26,1.94-3.05,3.81-5.36,5.62
		c-2.32,1.81-5.12,3.06-8.41,3.74c-4.88,1.16-9.08,1.01-12.63-0.46c-3.54-1.47-6.48-3.26-8.8-5.37c-2.67-2.59-4.88-5.61-6.63-9.08
		c-0.92,2.74-2.32,5.18-4.18,7.32c-1.56,1.9-3.61,3.68-6.15,5.34c-2.54,1.66-5.73,2.71-9.57,3.15c-3.85,0.34-7.54-0.68-11.08-3.06
		c-3.54-2.37-6.44-5.69-8.69-9.95c-2.25-4.26-3.62-9.27-4.1-15.03c-0.48-5.76,0.41-11.89,2.68-18.39c1.48-4.26,3.57-7.93,6.27-11.02
		c2.7-3.09,5.62-5.65,8.75-7.67c3.14-2.02,6.3-3.55,9.49-4.59c3.19-1.04,6.07-1.68,8.63-1.94c2.56-0.26,4.65-0.19,6.25,0.21
		C303.51,200.74,304.23,201.41,304.07,202.36z"/>
	<path class="st2" d="M418.01,172.88c-3.36,7.01-7.18,12.77-11.44,17.28c-4.27,4.51-8.36,7.99-12.28,10.46
		c-4.59,2.99-9.22,5.14-13.9,6.44c-1.62,2.69-2.88,5.82-3.76,9.38c-0.77,3.2-1.34,7.07-1.71,11.6c-0.37,4.54-0.08,9.89,0.87,16.06
		c0.59,3.7,1.6,6.58,3.01,8.65c1.41,2.07,3.08,3.53,5.01,4.38c1.93,0.86,4.03,1.24,6.31,1.14c2.28-0.09,4.53-0.46,6.75-1.09
		c2.22-0.63,4.35-1.46,6.39-2.5c2.04-1.03,3.79-2.03,5.27-2.99c2.1-1.33,3.63-2.04,4.59-2.13c0.96-0.09,1.58,0.17,1.87,0.78
		c0.29,0.61,0.28,1.4-0.02,2.36c-0.3,0.97-0.77,1.83-1.4,2.61c-3.23,4.24-6.89,7.68-10.97,10.32c-1.73,1.22-3.67,2.3-5.82,3.24
		c-2.15,0.94-4.42,1.64-6.81,2.1c-2.39,0.46-4.94,0.61-7.65,0.45c-2.71-0.16-5.48-0.82-8.33-1.97c-3.75-1.33-6.88-3.25-9.39-5.76
		c-2.51-2.51-4.55-5.3-6.13-8.37c-1.58-3.07-2.74-6.33-3.49-9.8c-0.75-3.46-1.3-6.92-1.63-10.36c-0.62-7.96-0.14-16.57,1.44-25.83
		c-0.27,0.14-0.73,0.17-1.37,0.07c-0.56-0.01-1.4-0.16-2.51-0.47c-1.12-0.31-2.68-0.93-4.69-1.87c-1.86-0.72-3.1-1.64-3.74-2.77
		c-0.63-1.12-0.78-2.16-0.43-3.11c0.35-0.95,1.15-1.75,2.4-2.41c1.25-0.66,2.89-0.94,4.95-0.85c2.27,0.11,4.08,0.03,5.43-0.22
		c1.35-0.25,2.45-0.53,3.33-0.82c0.93-0.45,1.73-0.96,2.42-1.54c0.18-1.49,0.69-3.4,1.52-5.71c0.79-1.99,1.81-4.57,3.08-7.75
		c1.27-3.18,3.01-7.06,5.22-11.63c2.21-4.57,4.71-8.73,7.5-12.48c2.8-3.75,5.89-6.84,9.29-9.27c3.4-2.43,7.14-4.01,11.21-4.73
		c4.08-0.72,8.52-0.3,13.32,1.26c3.07,1.34,5.42,3.28,7.05,5.82c1.43,2.08,2.28,4.92,2.53,8.54
		C421.56,163.04,420.47,167.52,418.01,172.88z M382.08,191.05c2.32-1.49,4.69-3.14,7.1-4.94c2.06-1.57,4.27-3.35,6.64-5.35
		c2.36-1.99,4.6-4.05,6.73-6.18c1.54-1.51,2.96-3.18,4.25-5c1.3-1.82,2.31-3.59,3.04-5.31c0.73-1.72,0.94-3.3,0.63-4.75
		c-0.31-1.45-1.27-2.55-2.89-3.31c-1.26-0.64-2.6-0.63-4.02,0.03c-1.42,0.66-2.85,1.76-4.31,3.3c-1.46,1.54-2.88,3.38-4.25,5.52
		c-1.37,2.14-2.69,4.36-3.96,6.65C388.03,177.23,385.05,183.68,382.08,191.05z"/>
	<path class="st2" d="M463.8,231.78c-0.93,1.11-2.29,1.73-4.08,1.85c-1.79,0.13-3.79,0.17-6.01,0.12c-2.22-0.04-4.53-0.01-6.94,0.09
		c-2.41,0.1-4.7,0.72-6.85,1.85c-3.42,1.82-6.54,4.51-9.36,8.07c-2.82,3.56-5.15,7.17-6.96,10.84c-1.82,3.66-2.99,7.03-3.5,10.1
		c-0.51,3.06-0.15,4.93,1.08,5.59c1.57,0.84,3.58,0.98,6.05,0.41c2.47-0.57,4.88-1.46,7.22-2.67c2.35-1.22,4.48-2.61,6.41-4.18
		c1.92-1.57,3.17-2.91,3.74-4.03c0.55-1.07,1.27-2.6,2.17-4.59c0.9-1.99,1.91-3.9,3.02-5.71c1.11-1.82,2.24-3.3,3.37-4.46
		c1.14-1.15,2.27-1.49,3.42-1c1.09,0.46,2.51,0.89,4.24,1.3c1.73,0.4,3.19,1.12,4.38,2.16c1.19,1.04,1.78,2.6,1.78,4.67
		c0,2.07-1.12,5.05-3.35,8.92c-2.28,3.97-4.02,7.79-5.23,11.44c-1.21,3.65-1.98,7.01-2.31,10.08c-0.33,3.07-0.2,5.74,0.39,8
		c0.59,2.27,1.6,3.96,3.02,5.09c1.91,1.58,3.71,2.47,5.4,2.66c1.69,0.19,3.19,0.16,4.5-0.1c1.31-0.26,2.46-0.49,3.45-0.71
		c0.99-0.21,1.69-0.02,2.11,0.57c0.52,0.65,0.25,1.57-0.79,2.78c-1.04,1.21-2.59,2.31-4.65,3.31c-2.06,1-4.53,1.67-7.43,2.01
		c-2.9,0.34-5.93-0.07-9.1-1.21c-4.77-1.56-8.3-3.9-10.6-7.02c-2.3-3.12-3.92-6.2-4.85-9.23c-0.99-3.62-1.36-7.38-1.12-11.27
		c-2.17,1.87-4.59,3.23-7.27,4.09c-2.29,0.81-4.95,1.26-7.96,1.35c-3.01,0.09-6.28-0.68-9.79-2.32c-3.47-1.73-6.13-4.55-7.97-8.44
		c-1.85-3.9-2.66-8.26-2.45-13.1c0.21-4.83,1.56-9.85,4.04-15.05c2.48-5.2,6.33-9.98,11.54-14.37c3.41-2.87,7.05-4.93,10.92-6.16
		c3.87-1.23,7.66-1.9,11.37-1.98c3.71-0.09,7.19,0.26,10.45,1.05c3.26,0.79,6.05,1.74,8.38,2.86c2.33,1.12,4.08,2.28,5.26,3.47
		C464.13,230.1,464.41,231.06,463.8,231.78z"/>
</g>
<g>
	<path class="st2" d="M104.3,248.32c1.87-0.97,3.77-1.39,5.71-1.25c1.94,0.14,3.83,0.68,5.69,1.64c1.85,0.96,3.63,2.21,5.34,3.78
		c1.71,1.56,3.28,3.19,4.72,4.87c3.47,4.06,6.82,8.98,10.04,14.77c0.03-1.27,0.22-2.8,0.56-4.57c0.24-2.69,1.14-6.82,2.7-12.38
		c0.77-2.69,1.66-5.31,2.68-7.88c1.02-2.56,2.43-4.9,4.21-7c1.78-2.1,4.01-3.82,6.69-5.16c2.68-1.34,6.07-2.13,10.18-2.38
		c3.9-0.34,7.3,0.12,10.2,1.38c2.9,1.26,5.44,2.97,7.64,5.11c2.2,2.15,4.19,4.56,5.97,7.23c1.78,2.67,3.55,5.22,5.32,7.65
		c3.24,5,5.3,7.83,6.2,8.47c0.9,0.64,1.1-1.81,0.63-7.35c-0.35-2.96-0.42-6.42-0.21-10.38c0.21-3.96,0.87-7.7,1.98-11.2
		c1.11-3.51,2.72-6.41,4.83-8.72c2.1-2.31,4.91-3.33,8.43-3.07c2.39,0.23,4.91,1,7.57,2.31c2.65,1.31,5.29,3.12,7.92,5.44
		c2.62,2.31,5.15,5.03,7.6,8.14c2.44,3.12,4.66,6.56,6.66,10.33c2.09,3.85,3.98,6.97,5.67,9.38c1.7,2.41,3.36,4.17,4.99,5.29
		c1.63,1.12,3.32,1.52,5.06,1.21c1.74-0.31,3.7-1.27,5.88-2.86c1.64-1.22,3.02-1.48,4.15-0.77c1.13,0.71,1.69,1.87,1.68,3.46
		c-0.01,1.59-0.74,3.42-2.18,5.49c-1.45,2.07-3.84,3.86-7.16,5.37c-3.18,1.45-6.44,1.96-9.77,1.52c-3.33-0.43-6.59-1.41-9.77-2.93
		c-3.18-1.52-6.25-3.41-9.2-5.66c-2.95-2.26-5.65-4.58-8.1-6.97c-2.45-2.39-4.56-4.6-6.32-6.62c-1.76-2.02-3.11-3.56-4.04-4.64
		c-1.44-1.56-2.37-1.57-2.79-0.04c-0.42,1.54-0.62,3.82-0.62,6.85c0,3.03,0.08,6.37,0.23,10.02c0.15,3.65,0.14,6.89-0.03,9.73
		c-0.24,2.81-0.64,5.57-1.19,8.28c-0.55,2.71-1.49,4.97-2.82,6.77c-1.33,1.8-3.21,2.93-5.66,3.38c-2.44,0.45-5.66-0.18-9.63-1.91
		c-2.66-1.13-5.23-2.94-7.7-5.45c-2.47-2.5-4.83-5.3-7.09-8.38c-2.25-3.08-4.38-6.27-6.37-9.56c-1.99-3.29-3.78-6.42-5.37-9.39
		c-1.59-2.97-2.98-5.49-4.18-7.58c-1.21-2.09-2.15-3.52-2.84-4.29c-2.2-1.94-4.4-1.82-6.62,0.36c-2.22,2.18-4.37,6.68-6.44,13.5
		c-1.08,3.31-1.19,7.2-0.33,11.67c0.86,4.47,2.06,8.87,3.6,13.2c1.54,4.34,3.14,8.27,4.79,11.81c1.66,3.53,2.83,6.08,3.5,7.63
		c0.68,1.55,0.78,3.17,0.31,4.85c-0.47,1.68-1.38,3.19-2.74,4.53c-1.35,1.34-3.14,2.36-5.35,3.07c-2.21,0.71-4.71,0.77-7.49,0.17
		c-1.71-0.42-4.04-2.33-6.98-5.73c-2.95-3.4-6.01-7.59-9.19-12.6c-3.18-5-6.3-10.38-9.37-16.15c-3.07-5.77-5.68-11.18-7.82-16.23
		c-2.14-5.05-3.65-9.4-4.51-13.06C102.89,251.17,103.07,249,104.3,248.32z"/>
	<path class="st2" d="M304.07,202.36c-0.24,1.44-1.1,2.68-2.57,3.73c-1.47,1.05-3.17,2.13-5.09,3.26c-1.92,1.13-3.89,2.37-5.91,3.72
		c-2.02,1.35-3.67,3.08-4.95,5.19c-2.02,3.36-3.34,7.3-3.97,11.84c-0.63,4.54-0.81,8.85-0.53,12.95c0.28,4.1,0.97,7.6,2.08,10.5
		c1.1,2.9,2.35,4.31,3.74,4.23c1.77-0.1,3.57-1.04,5.4-2.82c1.83-1.78,3.45-3.81,4.86-6.09c1.4-2.28,2.54-4.59,3.4-6.95
		c0.86-2.36,1.26-4.16,1.19-5.42c-0.07-1.2-0.22-2.89-0.44-5.08c-0.23-2.18-0.32-4.34-0.28-6.49c0.04-2.14,0.26-4.01,0.66-5.59
		c0.39-1.59,1.2-2.47,2.43-2.65c1.17-0.18,2.6-0.55,4.29-1.11c1.69-0.56,3.3-0.71,4.85-0.45c1.55,0.27,2.84,1.29,3.87,3.07
		c1.04,1.78,1.58,4.92,1.61,9.41c0.04,4.61,0.46,8.79,1.26,12.56c0.8,3.77,1.83,7.06,3.09,9.86c1.26,2.81,2.71,5.03,4.36,6.66
		c1.65,1.63,3.36,2.56,5.15,2.79c2.44,0.35,4.43,0.17,5.97-0.55s2.81-1.54,3.81-2.44c1-0.91,1.86-1.71,2.6-2.42
		c0.74-0.7,1.44-0.91,2.1-0.62c0.77,0.28,1.01,1.22,0.72,2.8c-0.29,1.58-1.06,3.34-2.32,5.28c-1.26,1.94-3.05,3.81-5.36,5.62
		c-2.32,1.81-5.12,3.06-8.41,3.74c-4.88,1.16-9.08,1.01-12.63-0.46c-3.54-1.47-6.48-3.26-8.8-5.37c-2.67-2.59-4.88-5.61-6.63-9.08
		c-0.92,2.74-2.32,5.18-4.18,7.32c-1.56,1.9-3.61,3.68-6.15,5.34c-2.54,1.66-5.73,2.71-9.57,3.15c-3.85,0.34-7.54-0.68-11.08-3.06
		c-3.54-2.37-6.44-5.69-8.69-9.95c-2.25-4.26-3.62-9.27-4.1-15.03c-0.48-5.76,0.41-11.89,2.68-18.39c1.48-4.26,3.57-7.93,6.27-11.02
		c2.7-3.09,5.62-5.65,8.75-7.67c3.14-2.02,6.3-3.55,9.49-4.59c3.19-1.04,6.07-1.68,8.63-1.94c2.56-0.26,4.65-0.19,6.25,0.21
		C303.51,200.74,304.23,201.41,304.07,202.36z"/>
	<path class="st2" d="M418.01,172.88c-3.36,7.01-7.18,12.77-11.44,17.28c-4.27,4.51-8.36,7.99-12.28,10.46
		c-4.59,2.99-9.22,5.14-13.9,6.44c-1.62,2.69-2.88,5.82-3.76,9.38c-0.77,3.2-1.34,7.07-1.71,11.6c-0.37,4.54-0.08,9.89,0.87,16.06
		c0.59,3.7,1.6,6.58,3.01,8.65c1.41,2.07,3.08,3.53,5.01,4.38c1.93,0.86,4.03,1.24,6.31,1.14c2.28-0.09,4.53-0.46,6.75-1.09
		c2.22-0.63,4.35-1.46,6.39-2.5c2.04-1.03,3.79-2.03,5.27-2.99c2.1-1.33,3.63-2.04,4.59-2.13c0.96-0.09,1.58,0.17,1.87,0.78
		c0.29,0.61,0.28,1.4-0.02,2.36c-0.3,0.97-0.77,1.83-1.4,2.61c-3.23,4.24-6.89,7.68-10.97,10.32c-1.73,1.22-3.67,2.3-5.82,3.24
		c-2.15,0.94-4.42,1.64-6.81,2.1c-2.39,0.46-4.94,0.61-7.65,0.45c-2.71-0.16-5.48-0.82-8.33-1.97c-3.75-1.33-6.88-3.25-9.39-5.76
		c-2.51-2.51-4.55-5.3-6.13-8.37c-1.58-3.07-2.74-6.33-3.49-9.8c-0.75-3.46-1.3-6.92-1.63-10.36c-0.62-7.96-0.14-16.57,1.44-25.83
		c-0.27,0.14-0.73,0.17-1.37,0.07c-0.56-0.01-1.4-0.16-2.51-0.47c-1.12-0.31-2.68-0.93-4.69-1.87c-1.86-0.72-3.1-1.64-3.74-2.77
		c-0.63-1.12-0.78-2.16-0.43-3.11c0.35-0.95,1.15-1.75,2.4-2.41c1.25-0.66,2.89-0.94,4.95-0.85c2.27,0.11,4.08,0.03,5.43-0.22
		c1.35-0.25,2.45-0.53,3.33-0.82c0.93-0.45,1.73-0.96,2.42-1.54c0.18-1.49,0.69-3.4,1.52-5.71c0.79-1.99,1.81-4.57,3.08-7.75
		c1.27-3.18,3.01-7.06,5.22-11.63c2.21-4.57,4.71-8.73,7.5-12.48c2.8-3.75,5.89-6.84,9.29-9.27c3.4-2.43,7.14-4.01,11.21-4.73
		c4.08-0.72,8.52-0.3,13.32,1.26c3.07,1.34,5.42,3.28,7.05,5.82c1.43,2.08,2.28,4.92,2.53,8.54
		C421.56,163.04,420.47,167.52,418.01,172.88z M382.08,191.05c2.32-1.49,4.69-3.14,7.1-4.94c2.06-1.57,4.27-3.35,6.64-5.35
		c2.36-1.99,4.6-4.05,6.73-6.18c1.54-1.51,2.96-3.18,4.25-5c1.3-1.82,2.31-3.59,3.04-5.31c0.73-1.72,0.94-3.3,0.63-4.75
		c-0.31-1.45-1.27-2.55-2.89-3.31c-1.26-0.64-2.6-0.63-4.02,0.03c-1.42,0.66-2.85,1.76-4.31,3.3c-1.46,1.54-2.88,3.38-4.25,5.52
		c-1.37,2.14-2.69,4.36-3.96,6.65C388.03,177.23,385.05,183.68,382.08,191.05z"/>
	<path class="st2" d="M463.8,231.78c-0.93,1.11-2.29,1.73-4.08,1.85c-1.79,0.13-3.79,0.17-6.01,0.12c-2.22-0.04-4.53-0.01-6.94,0.09
		c-2.41,0.1-4.7,0.72-6.85,1.85c-3.42,1.82-6.54,4.51-9.36,8.07c-2.82,3.56-5.15,7.17-6.96,10.84c-1.82,3.66-2.99,7.03-3.5,10.1
		c-0.51,3.06-0.15,4.93,1.08,5.59c1.57,0.84,3.58,0.98,6.05,0.41c2.47-0.57,4.88-1.46,7.22-2.67c2.35-1.22,4.48-2.61,6.41-4.18
		c1.92-1.57,3.17-2.91,3.74-4.03c0.55-1.07,1.27-2.6,2.17-4.59c0.9-1.99,1.91-3.9,3.02-5.71c1.11-1.82,2.24-3.3,3.37-4.46
		c1.14-1.15,2.27-1.49,3.42-1c1.09,0.46,2.51,0.89,4.24,1.3c1.73,0.4,3.19,1.12,4.38,2.16c1.19,1.04,1.78,2.6,1.78,4.67
		c0,2.07-1.12,5.05-3.35,8.92c-2.28,3.97-4.02,7.79-5.23,11.44c-1.21,3.65-1.98,7.01-2.31,10.08c-0.33,3.07-0.2,5.74,0.39,8
		c0.59,2.27,1.6,3.96,3.02,5.09c1.91,1.58,3.71,2.47,5.4,2.66c1.69,0.19,3.19,0.16,4.5-0.1c1.31-0.26,2.46-0.49,3.45-0.71
		c0.99-0.21,1.69-0.02,2.11,0.57c0.52,0.65,0.25,1.57-0.79,2.78c-1.04,1.21-2.59,2.31-4.65,3.31c-2.06,1-4.53,1.67-7.43,2.01
		c-2.9,0.34-5.93-0.07-9.1-1.21c-4.77-1.56-8.3-3.9-10.6-7.02c-2.3-3.12-3.92-6.2-4.85-9.23c-0.99-3.62-1.36-7.38-1.12-11.27
		c-2.17,1.87-4.59,3.23-7.27,4.09c-2.29,0.81-4.95,1.26-7.96,1.35c-3.01,0.09-6.28-0.68-9.79-2.32c-3.47-1.73-6.13-4.55-7.97-8.44
		c-1.85-3.9-2.66-8.26-2.45-13.1c0.21-4.83,1.56-9.85,4.04-15.05c2.48-5.2,6.33-9.98,11.54-14.37c3.41-2.87,7.05-4.93,10.92-6.16
		c3.87-1.23,7.66-1.9,11.37-1.98c3.71-0.09,7.19,0.26,10.45,1.05c3.26,0.79,6.05,1.74,8.38,2.86c2.33,1.12,4.08,2.28,5.26,3.47
		C464.13,230.1,464.41,231.06,463.8,231.78z"/>
</g>
<g>
	<path class="st2" d="M151.81,339.01c2.15-0.71,3.98-0.52,5.49,0.57c1.51,1.1,2.85,2.59,4.02,4.48c1.17,1.89,2.2,4.03,3.1,6.41
		c0.9,2.38,1.79,4.55,2.69,6.5c0.89,1.95,1.87,3.52,2.94,4.69c1.07,1.17,2.35,1.48,3.85,0.94c1.29-0.33,2.26-1.39,2.9-3.17
		c0.64-1.78,1.12-3.96,1.42-6.54c0.3-2.58,0.56-5.43,0.78-8.55c0.22-3.12,0.57-6.22,1.04-9.31c0.41-2.26,1.1-4.11,2.07-5.55
		c0.97-1.44,1.96-2.57,2.99-3.4c1.11-1.04,2.4-1.74,3.86-2.09c2.09-1.12,4.94-0.46,8.55,1.96c1.54,1.09,3.3,2.53,5.3,4.32
		c1.99,1.8,4.23,4.17,6.72,7.13c2.48,2.95,5.24,6.53,8.26,10.74c3.02,4.21,6.36,9.26,10.01,15.14c5.12,8.34,8.88,16.42,11.29,24.23
		c2.41,7.81,3.75,15.12,4.03,21.93c0.28,6.81-0.4,13.08-2.04,18.82c-1.64,5.74-3.94,10.74-6.91,14.99
		c-2.96,4.25-6.46,7.69-10.48,10.31c-4.02,2.62-8.34,4.25-12.96,4.91c-4.35,0.6-8.75-0.08-13.2-2.04c-4.45-1.95-8.4-4.79-11.84-8.51
		c-3.44-3.72-5.99-8.18-7.65-13.4c-1.66-5.21-1.8-10.76-0.42-16.62c1.33-5.84,3.65-11.04,6.97-15.57
		c3.32-4.54,6.78-8.26,10.37-11.18c3.6-2.92,6.79-4.94,9.6-6.07c2.8-1.13,4.31-1.31,4.52-0.55c0.37,0.87,0.02,2.11-1.06,3.72
		c-1.07,1.61-2.45,3.69-4.11,6.23c-1.66,2.54-3.46,5.65-5.39,9.32c-1.93,3.67-3.53,7.99-4.82,12.96c-1.36,4.94-1.31,8.97,0.14,12.08
		c1.45,3.11,3.6,4.94,6.47,5.49c2.87,0.55,6.15-0.44,9.85-2.97c3.7-2.53,7.13-7.02,10.31-13.44c1.56-3.2,2.41-6.65,2.53-10.34
		c0.13-3.69-0.27-7.48-1.19-11.38c-0.92-3.9-2.23-7.77-3.93-11.62c-1.7-3.85-3.59-7.57-5.67-11.17
		c-4.77-8.38-10.66-16.77-17.67-25.19c-0.3,3.92-0.94,7.6-1.92,11.03c-0.86,2.89-2.17,5.76-3.93,8.63c-1.77,2.87-4.2,4.99-7.32,6.38
		c-4.62,2.06-8.76,2.69-12.42,1.88c-3.66-0.81-6.79-2.45-9.37-4.94c-2.58-2.48-4.66-5.49-6.24-9.04c-1.57-3.54-2.69-6.96-3.34-10.24
		c-0.65-3.28-0.81-6.16-0.46-8.64C149.92,340.83,150.66,339.4,151.81,339.01z"/>
	<path class="st2" d="M267.3,301.25c5.61,2.3,10.2,5.49,13.76,9.58c3.55,4.09,6.16,8.57,7.82,13.44c1.66,4.88,2.37,9.89,2.13,15.05
		c-0.24,5.16-1.32,9.98-3.26,14.47c-1.94,4.49-4.67,8.38-8.19,11.68c-3.53,3.29-7.82,5.45-12.87,6.45
		c-6.4,1.25-12.05,0.76-16.93-1.48c-4.88-2.23-8.88-5.46-11.98-9.68c-3.11-4.22-5.31-9.03-6.61-14.42
		c-1.3-5.39-1.59-10.63-0.87-15.7c0.73-5.07,2.57-9.62,5.53-13.63c2.96-4.02,7.06-6.66,12.29-7.93c4.85-1.25,8.3-2.43,10.37-3.54
		c2.06-1.1,3.54-2.06,4.43-2.87c0.89-0.81,1.52-1.36,1.89-1.65C265.17,300.72,266,300.8,267.3,301.25z M250.47,319.48
		c-0.59,0.79-0.88,2.51-0.87,5.18c0.01,2.67,0.23,5.77,0.66,9.3c0.43,3.53,1.08,7.19,1.95,10.99c0.86,3.8,1.86,7.23,2.99,10.29
		c1.13,3.07,2.42,5.52,3.87,7.37c1.45,1.85,2.94,2.52,4.47,2.02c1.53-0.5,2.85-1.81,3.96-3.94c1.11-2.13,2.01-4.67,2.71-7.64
		c0.69-2.96,1.12-6.18,1.28-9.64c0.16-3.47,0.06-6.8-0.32-10c-0.38-3.2-1.07-6.05-2.07-8.54c-1.01-2.49-2.27-4.31-3.8-5.46
		c-3.68-2.7-6.63-4-8.83-3.89C254.26,315.63,252.26,316.95,250.47,319.48z"/>
	<path class="st2" d="M380.73,351.85c2.53-0.89,4.44-1.26,5.72-1.12c1.28,0.14,2.06,0.63,2.33,1.47c0.27,0.83,0.1,1.8-0.52,2.91
		c-0.62,1.11-1.65,2.12-3.08,3.03c-1.78,1.17-3.52,2.38-5.22,3.64c-1.7,1.26-3.51,2.59-5.41,4c-1.91,1.41-3.99,2.96-6.24,4.66
		c-2.25,1.7-4.74,3.66-7.47,5.88c0.46,5.42,0.57,10.91,0.31,16.47c-0.26,5.56-0.95,10.86-2.08,15.89
		c-1.13,5.03-2.73,9.63-4.79,13.81c-2.06,4.18-4.71,7.53-7.95,10.05c-4.52,3.56-8.97,5.48-13.35,5.77
		c-4.38,0.29-8.19-0.72-11.41-3.02c-3.22-2.3-5.65-5.65-7.28-10.06c-1.63-4.4-1.84-9.51-0.63-15.32c1.27-5.86,3.42-10.99,6.45-15.38
		c3.04-4.39,6.19-8.05,9.46-10.96c3.79-3.38,7.85-6.25,12.18-8.58c-0.02-1.4-0.12-3.15-0.31-5.24c-0.11-1.69-0.37-3.76-0.78-6.2
		c-0.41-2.44-0.95-5.37-1.6-8.78c-0.42-1.99-0.99-3.9-1.72-5.72c-0.73-1.82-1.46-3.4-2.2-4.74c-0.89-1.52-1.73-2.9-2.53-4.13
		c-1.94,1.94-3.92,3.66-5.94,5.14c-1.68,1.23-3.49,2.33-5.45,3.28c-1.96,0.96-3.78,1.38-5.48,1.26c-1.8-0.12-3.77-1.09-5.9-2.89
		c-2.13-1.8-3.96-4.19-5.5-7.16c-1.53-2.97-2.65-6.41-3.35-10.33c-0.7-3.92-0.58-8.01,0.36-12.26c1.11-4.3,2.36-7.72,3.77-10.26
		c1.4-2.54,2.88-4.54,4.43-6.01c1.55-1.46,3.18-2.47,4.9-3.03c1.71-0.56,3.43-0.97,5.15-1.24c2.49-0.28,5.4,0.28,8.74,1.66
		c3.34,1.38,6.49,3.07,9.46,5.07c2.97,2,5.48,4.01,7.55,6.03c2.06,2.02,3,3.56,2.82,4.61c-0.18,1-1.4,1.28-3.68,0.84
		c-2.28-0.44-4.89-0.98-7.84-1.64c-2.95-0.65-5.84-1.08-8.68-1.28c-2.84-0.2-4.9,0.56-6.16,2.27c-1.22,1.77-2.24,3.74-3.07,5.93
		c-0.83,2.19-1.4,4.36-1.71,6.53c-0.31,2.17-0.3,4.17,0.01,6.02c0.32,1.85,1.07,3.34,2.26,4.49c0.62,0.6,1.55,0.46,2.79-0.44
		c1.24-0.89,2.68-2,4.34-3.32c1.65-1.32,3.48-2.57,5.48-3.75c2-1.18,4.1-1.83,6.31-1.96c2.2-0.13,4.43,0.6,6.69,2.19
		c2.26,1.59,4.48,4.53,6.66,8.83c1.32,2.5,2.65,5.84,3.99,10c1.34,4.16,2.45,9.19,3.33,15.08c1.48-0.79,3.19-1.79,5.14-2.97
		c1.94-1.18,3.9-2.37,5.88-3.55c1.97-1.18,3.93-2.28,5.86-3.3C377.65,353.05,379.32,352.31,380.73,351.85z M336.95,415.98
		c0.84-1.85,1.44-4.29,1.8-7.32c0.37-3.03,0.65-6.03,0.84-8.99c0.12-3.47,0.19-7.09,0.22-10.84c-2.49,1.9-4.71,3.94-6.66,6.1
		c-1.71,1.79-3.24,3.97-4.59,6.54c-1.35,2.57-2.02,5.34-1.99,8.32c0.03,2.86,0.51,4.99,1.43,6.37c0.92,1.38,1.97,2.2,3.13,2.45
		c1.16,0.25,2.3,0.1,3.41-0.44C335.65,417.63,336.45,416.9,336.95,415.98z"/>
	<path class="st2" d="M436.69,322.56c-0.74,1.29-1.99,2.17-3.77,2.63c-1.77,0.46-3.78,0.88-6.02,1.26c-2.24,0.38-4.56,0.84-6.96,1.4
		c-2.41,0.56-4.59,1.61-6.55,3.16c-3.1,2.48-5.75,5.77-7.94,9.88c-2.19,4.11-3.87,8.18-5.03,12.21c-1.17,4.03-1.73,7.63-1.69,10.81
		c0.04,3.18,0.74,4.98,2.1,5.41c1.73,0.55,3.78,0.3,6.16-0.73c2.38-1.03,4.64-2.38,6.78-4.05c2.14-1.67,4.03-3.47,5.68-5.41
		c1.65-1.94,2.66-3.52,3.03-4.76c0.36-1.17,0.81-2.85,1.35-5.02c0.54-2.17,1.21-4.28,2-6.31c0.79-2.04,1.65-3.74,2.58-5.12
		c0.93-1.37,2.02-1.92,3.25-1.65c1.18,0.26,2.68,0.43,4.49,0.5c1.81,0.08,3.41,0.52,4.8,1.34c1.39,0.82,2.26,2.27,2.64,4.35
		c0.37,2.08-0.21,5.28-1.75,9.6c-1.57,4.43-2.63,8.59-3.18,12.49c-0.55,3.9-0.72,7.42-0.5,10.57c0.22,3.15,0.84,5.8,1.84,7.97
		c1.01,2.16,2.32,3.68,3.95,4.55c2.21,1.23,4.18,1.78,5.91,1.65c1.73-0.13,3.23-0.44,4.5-0.95c1.27-0.5,2.38-0.96,3.34-1.36
		c0.95-0.4,1.69-0.34,2.23,0.18c0.63,0.55,0.54,1.53-0.29,2.94c-0.83,1.41-2.19,2.81-4.07,4.2c-1.88,1.4-4.25,2.54-7.1,3.42
		c-2.85,0.89-5.97,1.06-9.36,0.51c-5.07-0.67-9.05-2.35-11.93-5.05c-2.88-2.7-5.06-5.48-6.54-8.36c-1.65-3.45-2.71-7.16-3.17-11.11
		c-1.84,2.29-4.03,4.12-6.56,5.48c-2.16,1.25-4.74,2.21-7.75,2.86c-3.01,0.66-6.43,0.5-10.26-0.48c-3.8-1.09-6.98-3.41-9.54-6.98
		c-2.56-3.57-4.17-7.8-4.84-12.7c-0.66-4.9-0.22-10.19,1.33-15.88c1.56-5.69,4.55-11.23,9-16.62c2.91-3.53,6.19-6.29,9.86-8.26
		c3.66-1.97,7.35-3.36,11.06-4.14c3.71-0.79,7.27-1.1,10.69-0.92c3.42,0.17,6.4,0.61,8.94,1.29c2.54,0.69,4.51,1.52,5.91,2.49
		C436.72,320.81,437.18,321.72,436.69,322.56z"/>
</g>
</svg>
