<?xml version="1.0" encoding="utf-8"?>
<!-- Generator: Adobe Illustrator 25.4.1, SVG Export Plug-In . SVG Version: 6.00 Build 0)  -->
<svg version="1.1" id="Layer_1" xmlns="http://www.w3.org/2000/svg" xmlns:xlink="http://www.w3.org/1999/xlink" x="0px" y="0px"
	 viewBox="0 0 595 595.28" style="enable-background:new 0 0 595 595.28;" xml:space="preserve">
<style type="text/css">
	.st0{fill:#F1ECE1;}
	.st1{fill:#6A8241;}
	.st2{fill:#FFEEC5;}
</style>
<rect x="728.9" y="-33.61" class="st0" width="594.69" height="594.69"/>
<rect x="2.43" y="1.1" class="st0" width="594.5" height="594.5"/>
<path class="st1" d="M552.21,297.34c0,28.89-13.26,54.89-21.85,80.78c-8.73,26.31-13.96,55.7-30.03,77.35
	c-15.75,21.21-40.41,32.31-61.75,47.54c-20.55,14.68-39.8,35.35-64.22,43.14c-23.22,7.4-49.1,1.5-74.68,1.5
	c-25.58,0-51.46,5.9-74.68-1.5c-24.43-7.78-43.67-28.46-64.22-43.14c-21.34-15.24-46-26.33-61.75-47.55
	C82.96,433.82,77.73,404.43,69,378.12c-8.59-25.9-21.85-51.89-21.85-80.78c0-28.89,13.26-54.89,21.85-80.78
	c8.73-26.31,13.96-55.7,30.03-77.35c15.75-21.21,40.41-32.31,61.75-47.54c20.55-14.68,39.8-35.35,64.22-43.14
	c23.22-7.4,49.1-1.5,74.68-1.5c25.58,0,51.46-5.9,74.68,1.5c24.43,7.78,43.67,28.46,64.22,43.14c21.34,15.24,46,26.33,61.75,47.55
	c16.07,21.65,21.31,51.04,30.03,77.35C538.96,242.45,552.21,268.45,552.21,297.34z"/>
<g>
	<path class="st2" d="M113.16,243.36c1.81-0.92,3.65-1.31,5.52-1.18c1.88,0.13,3.71,0.65,5.51,1.55c1.79,0.91,3.52,2.1,5.17,3.58
		c1.65,1.48,3.18,3.02,4.57,4.61c3.36,3.84,6.6,8.51,9.73,13.99c0.03-1.21,0.21-2.65,0.54-4.33c0.23-2.54,1.1-6.46,2.61-11.73
		c0.74-2.55,1.61-5.03,2.6-7.46c0.99-2.43,2.35-4.64,4.08-6.63c1.73-1.99,3.89-3.62,6.47-4.89c2.59-1.27,5.88-2.02,9.86-2.26
		c3.78-0.32,7.07,0.12,9.87,1.31c2.8,1.19,5.27,2.81,7.4,4.84c2.13,2.04,4.05,4.32,5.78,6.85c1.72,2.53,3.44,4.94,5.15,7.25
		c3.13,4.74,5.13,7.42,6,8.02c0.87,0.61,1.07-1.71,0.61-6.96c-0.34-2.8-0.41-6.08-0.21-9.84c0.2-3.75,0.84-7.29,1.92-10.61
		c1.08-3.32,2.63-6.07,4.67-8.26c2.04-2.19,4.76-3.16,8.16-2.91c2.31,0.22,4.76,0.95,7.33,2.19c2.57,1.24,5.12,2.96,7.66,5.15
		c2.54,2.19,4.99,4.77,7.36,7.72c2.36,2.95,4.51,6.21,6.45,9.79c2.02,3.65,3.85,6.61,5.49,8.89c1.64,2.28,3.25,3.95,4.83,5.01
		c1.58,1.06,3.21,1.44,4.9,1.14c1.69-0.3,3.58-1.2,5.7-2.71c1.58-1.16,2.92-1.4,4.02-0.73c1.1,0.68,1.64,1.77,1.63,3.28
		c-0.01,1.51-0.71,3.24-2.11,5.2c-1.4,1.96-3.71,3.66-6.94,5.09c-3.08,1.37-6.23,1.85-9.46,1.44c-3.22-0.41-6.38-1.34-9.46-2.77
		c-3.08-1.44-6.05-3.23-8.91-5.37c-2.86-2.14-5.47-4.34-7.84-6.61c-2.37-2.27-4.41-4.36-6.12-6.27c-1.7-1.91-3.01-3.38-3.92-4.39
		c-1.4-1.48-2.3-1.49-2.7-0.03c-0.4,1.46-0.6,3.62-0.6,6.49c0,2.87,0.07,6.03,0.22,9.49c0.15,3.46,0.14,6.53-0.03,9.22
		c-0.24,2.66-0.62,5.28-1.15,7.84c-0.53,2.57-1.44,4.7-2.73,6.41c-1.28,1.71-3.11,2.78-5.48,3.21c-2.37,0.43-5.48-0.17-9.33-1.81
		c-2.58-1.07-5.06-2.79-7.46-5.16c-2.39-2.37-4.68-5.02-6.86-7.94c-2.18-2.92-4.24-5.94-6.16-9.06c-1.93-3.12-3.66-6.08-5.2-8.89
		c-1.54-2.81-2.89-5.2-4.05-7.19c-1.17-1.98-2.08-3.33-2.75-4.06c-2.13-1.84-4.26-1.72-6.41,0.34c-2.15,2.06-4.23,6.33-6.23,12.79
		c-1.05,3.14-1.15,6.82-0.32,11.05c0.83,4.23,2,8.4,3.49,12.51c1.49,4.11,3.04,7.84,4.64,11.19c1.6,3.35,2.74,5.76,3.39,7.23
		c0.66,1.47,0.75,3,0.3,4.6c-0.45,1.6-1.34,3.02-2.65,4.29c-1.31,1.27-3.04,2.23-5.18,2.91c-2.14,0.67-4.56,0.73-7.26,0.16
		c-1.66-0.4-3.91-2.21-6.76-5.43c-2.85-3.22-5.82-7.19-8.9-11.93c-3.08-4.74-6.1-9.84-9.08-15.3c-2.97-5.46-5.5-10.59-7.57-15.38
		c-2.08-4.79-3.53-8.91-4.36-12.38C111.79,246.06,111.97,244.01,113.16,243.36z"/>
	<path class="st2" d="M306.59,199.81c-0.23,1.37-1.06,2.54-2.49,3.53c-1.43,0.99-3.07,2.02-4.93,3.09
		c-1.86,1.07-3.77,2.24-5.73,3.52c-1.95,1.28-3.55,2.92-4.79,4.91c-1.95,3.18-3.23,6.92-3.85,11.21c-0.61,4.3-0.78,8.39-0.51,12.27
		c0.27,3.88,0.94,7.2,2.01,9.94c1.07,2.75,2.27,4.08,3.62,4c1.71-0.1,3.45-0.99,5.23-2.68c1.77-1.69,3.34-3.61,4.7-5.77
		c1.36-2.16,2.45-4.35,3.29-6.58c0.83-2.23,1.22-3.94,1.15-5.13c-0.07-1.14-0.21-2.74-0.43-4.81c-0.22-2.07-0.31-4.12-0.27-6.15
		c0.04-2.03,0.25-3.8,0.63-5.3c0.38-1.5,1.17-2.34,2.35-2.51c1.13-0.17,2.52-0.52,4.15-1.06c1.63-0.53,3.2-0.68,4.69-0.42
		c1.5,0.25,2.75,1.22,3.75,2.9c1.01,1.68,1.53,4.66,1.56,8.92c0.04,4.36,0.45,8.33,1.22,11.9c0.78,3.57,1.77,6.68,2.99,9.34
		c1.22,2.66,2.62,4.76,4.22,6.31c1.6,1.55,3.26,2.43,4.98,2.64c2.36,0.33,4.29,0.16,5.78-0.52c1.49-0.68,2.72-1.45,3.69-2.32
		c0.96-0.86,1.8-1.62,2.52-2.29c0.72-0.66,1.39-0.86,2.03-0.58c0.74,0.27,0.98,1.15,0.7,2.65c-0.28,1.5-1.03,3.17-2.25,5
		c-1.22,1.84-2.95,3.61-5.19,5.33c-2.24,1.71-4.96,2.89-8.14,3.54c-4.72,1.1-8.8,0.96-12.23-0.43c-3.43-1.39-6.27-3.09-8.52-5.09
		c-2.58-2.45-4.72-5.32-6.42-8.6c-0.89,2.6-2.24,4.91-4.05,6.94c-1.51,1.8-3.49,3.49-5.95,5.06c-2.46,1.57-5.55,2.57-9.27,2.98
		c-3.72,0.32-7.3-0.65-10.73-2.9c-3.43-2.25-6.23-5.39-8.41-9.42c-2.18-4.03-3.5-8.78-3.97-14.24c-0.47-5.46,0.4-11.26,2.59-17.42
		c1.43-4.03,3.46-7.51,6.07-10.44c2.61-2.93,5.44-5.35,8.48-7.27c3.04-1.91,6.1-3.36,9.19-4.35c3.09-0.98,5.87-1.6,8.36-1.84
		c2.48-0.24,4.5-0.18,6.06,0.2C306.04,198.28,306.74,198.92,306.59,199.81z"/>
	<path class="st2" d="M416.91,171.88c-3.25,6.64-6.95,12.1-11.08,16.37c-4.13,4.27-8.1,7.57-11.89,9.91
		c-4.44,2.84-8.93,4.87-13.46,6.1c-1.57,2.55-2.79,5.52-3.64,8.89c-0.75,3.03-1.3,6.7-1.65,10.99c-0.36,4.3-0.08,9.37,0.85,15.22
		c0.57,3.5,1.54,6.24,2.91,8.19c1.37,1.96,2.98,3.34,4.85,4.15c1.87,0.81,3.9,1.17,6.11,1.08c2.21-0.09,4.38-0.43,6.53-1.03
		c2.15-0.6,4.21-1.39,6.18-2.37c1.97-0.98,3.67-1.92,5.11-2.83c2.03-1.26,3.51-1.93,4.44-2.02c0.93-0.09,1.53,0.16,1.81,0.74
		c0.28,0.58,0.27,1.33-0.02,2.24c-0.29,0.92-0.74,1.74-1.36,2.47c-3.13,4.02-6.67,7.28-10.62,9.78c-1.67,1.16-3.55,2.18-5.63,3.07
		c-2.08,0.89-4.28,1.56-6.6,1.99c-2.32,0.43-4.79,0.58-7.4,0.43c-2.62-0.15-5.31-0.77-8.07-1.87c-3.63-1.26-6.66-3.08-9.09-5.46
		c-2.43-2.38-4.41-5.02-5.94-7.93c-1.53-2.91-2.66-6-3.38-9.28c-0.73-3.28-1.26-6.55-1.58-9.81c-0.6-7.54-0.13-15.7,1.4-24.47
		c-0.26,0.13-0.7,0.16-1.33,0.07c-0.54-0.01-1.35-0.16-2.43-0.44c-1.08-0.29-2.59-0.88-4.54-1.77c-1.8-0.68-3-1.55-3.62-2.62
		c-0.61-1.07-0.75-2.05-0.41-2.95c0.34-0.9,1.11-1.66,2.32-2.29c1.21-0.62,2.8-0.89,4.79-0.81c2.2,0.1,3.95,0.03,5.25-0.21
		c1.3-0.24,2.38-0.5,3.23-0.77c0.9-0.42,1.68-0.91,2.34-1.46c0.18-1.41,0.67-3.22,1.47-5.41c0.76-1.88,1.76-4.33,2.98-7.34
		c1.23-3.01,2.91-6.68,5.05-11.02c2.14-4.33,4.56-8.27,7.27-11.83c2.71-3.55,5.71-6.48,9-8.78c3.29-2.3,6.91-3.8,10.85-4.48
		c3.95-0.68,8.24-0.28,12.89,1.19c2.97,1.27,5.25,3.11,6.83,5.52c1.39,1.97,2.21,4.66,2.45,8.09
		C420.35,162.56,419.28,166.81,416.91,171.88z M382.12,189.1c2.25-1.41,4.54-2.97,6.88-4.68c2-1.49,4.14-3.18,6.43-5.07
		c2.29-1.89,4.46-3.84,6.51-5.85c1.49-1.43,2.86-3.01,4.12-4.74c1.25-1.73,2.24-3.4,2.94-5.03c0.71-1.63,0.91-3.13,0.61-4.5
		c-0.3-1.37-1.23-2.42-2.8-3.14c-1.22-0.61-2.52-0.6-3.89,0.03c-1.37,0.63-2.76,1.67-4.18,3.13c-1.42,1.46-2.79,3.2-4.11,5.23
		c-1.33,2.03-2.61,4.13-3.84,6.3C387.88,176.01,384.99,182.11,382.12,189.1z"/>
	<path class="st2" d="M461.24,227.69c-0.9,1.05-2.22,1.64-3.95,1.75c-1.73,0.12-3.67,0.16-5.82,0.12c-2.15-0.04-4.39-0.01-6.72,0.08
		c-2.34,0.1-4.55,0.68-6.63,1.75c-3.31,1.73-6.33,4.27-9.06,7.65c-2.73,3.37-4.98,6.79-6.74,10.27c-1.76,3.47-2.89,6.66-3.39,9.57
		c-0.5,2.9-0.15,4.67,1.05,5.3c1.52,0.79,3.47,0.93,5.86,0.39c2.39-0.54,4.72-1.38,6.99-2.53c2.27-1.15,4.34-2.47,6.21-3.96
		c1.86-1.49,3.07-2.76,3.62-3.81c0.53-1.01,1.23-2.46,2.1-4.35c0.87-1.89,1.85-3.69,2.93-5.41c1.08-1.72,2.16-3.13,3.27-4.22
		c1.1-1.09,2.2-1.41,3.31-0.95c1.06,0.44,2.43,0.85,4.1,1.23c1.67,0.38,3.09,1.06,4.24,2.05c1.15,0.99,1.73,2.46,1.73,4.42
		c0,1.96-1.08,4.78-3.24,8.45c-2.21,3.77-3.9,7.38-5.06,10.84c-1.17,3.46-1.91,6.64-2.24,9.55c-0.32,2.91-0.2,5.44,0.38,7.58
		c0.57,2.15,1.55,3.75,2.92,4.83c1.85,1.5,3.59,2.34,5.23,2.52c1.63,0.18,3.08,0.15,4.36-0.09c1.27-0.24,2.38-0.47,3.34-0.67
		c0.96-0.2,1.64-0.02,2.05,0.54c0.5,0.61,0.24,1.49-0.76,2.63c-1.01,1.14-2.51,2.19-4.5,3.14c-1.99,0.95-4.39,1.58-7.19,1.9
		c-2.8,0.32-5.74-0.06-8.81-1.14c-4.62-1.48-8.04-3.7-10.27-6.65c-2.23-2.96-3.8-5.87-4.69-8.74c-0.96-3.43-1.32-6.99-1.08-10.68
		c-2.1,1.77-4.45,3.06-7.04,3.87c-2.22,0.77-4.79,1.2-7.7,1.28c-2.92,0.08-6.08-0.65-9.48-2.2c-3.36-1.64-5.93-4.31-7.72-8
		c-1.79-3.69-2.58-7.83-2.37-12.41c0.2-4.58,1.51-9.33,3.91-14.26c2.4-4.92,6.13-9.46,11.18-13.61c3.3-2.72,6.83-4.67,10.58-5.84
		c3.75-1.17,7.42-1.8,11.01-1.88c3.59-0.08,6.96,0.25,10.11,0.99c3.15,0.75,5.86,1.65,8.11,2.71c2.25,1.07,3.95,2.16,5.09,3.28
		C461.56,226.1,461.83,227,461.24,227.69z"/>
</g>
<g>
	<path class="st2" d="M113.16,243.36c1.81-0.92,3.65-1.31,5.52-1.18c1.88,0.13,3.71,0.65,5.51,1.55c1.79,0.91,3.52,2.1,5.17,3.58
		c1.65,1.48,3.18,3.02,4.57,4.61c3.36,3.84,6.6,8.51,9.73,13.99c0.03-1.21,0.21-2.65,0.54-4.33c0.23-2.54,1.1-6.46,2.61-11.73
		c0.74-2.55,1.61-5.03,2.6-7.46c0.99-2.43,2.35-4.64,4.08-6.63c1.73-1.99,3.89-3.62,6.47-4.89c2.59-1.27,5.88-2.02,9.86-2.26
		c3.78-0.32,7.07,0.12,9.87,1.31c2.8,1.19,5.27,2.81,7.4,4.84c2.13,2.04,4.05,4.32,5.78,6.85c1.72,2.53,3.44,4.94,5.15,7.25
		c3.13,4.74,5.13,7.42,6,8.02c0.87,0.61,1.07-1.71,0.61-6.96c-0.34-2.8-0.41-6.08-0.21-9.84c0.2-3.75,0.84-7.29,1.92-10.61
		c1.08-3.32,2.63-6.07,4.67-8.26c2.04-2.19,4.76-3.16,8.16-2.91c2.31,0.22,4.76,0.95,7.33,2.19c2.57,1.24,5.12,2.96,7.66,5.15
		c2.54,2.19,4.99,4.77,7.36,7.72c2.36,2.95,4.51,6.21,6.45,9.79c2.02,3.65,3.85,6.61,5.49,8.89c1.64,2.28,3.25,3.95,4.83,5.01
		c1.58,1.06,3.21,1.44,4.9,1.14c1.69-0.3,3.58-1.2,5.7-2.71c1.58-1.16,2.92-1.4,4.02-0.73c1.1,0.68,1.64,1.77,1.63,3.28
		c-0.01,1.51-0.71,3.24-2.11,5.2c-1.4,1.96-3.71,3.66-6.94,5.09c-3.08,1.37-6.23,1.85-9.46,1.44c-3.22-0.41-6.38-1.34-9.46-2.77
		c-3.08-1.44-6.05-3.23-8.91-5.37c-2.86-2.14-5.47-4.34-7.84-6.61c-2.37-2.27-4.41-4.36-6.12-6.27c-1.7-1.91-3.01-3.38-3.92-4.39
		c-1.4-1.48-2.3-1.49-2.7-0.03c-0.4,1.46-0.6,3.62-0.6,6.49c0,2.87,0.07,6.03,0.22,9.49c0.15,3.46,0.14,6.53-0.03,9.22
		c-0.24,2.66-0.62,5.28-1.15,7.84c-0.53,2.57-1.44,4.7-2.73,6.41c-1.28,1.71-3.11,2.78-5.48,3.21c-2.37,0.43-5.48-0.17-9.33-1.81
		c-2.58-1.07-5.06-2.79-7.46-5.16c-2.39-2.37-4.68-5.02-6.86-7.94c-2.18-2.92-4.24-5.94-6.16-9.06c-1.93-3.12-3.66-6.08-5.2-8.89
		c-1.54-2.81-2.89-5.2-4.05-7.19c-1.17-1.98-2.08-3.33-2.75-4.06c-2.13-1.84-4.26-1.72-6.41,0.34c-2.15,2.06-4.23,6.33-6.23,12.79
		c-1.05,3.14-1.15,6.82-0.32,11.05c0.83,4.23,2,8.4,3.49,12.51c1.49,4.11,3.04,7.84,4.64,11.19c1.6,3.35,2.74,5.76,3.39,7.23
		c0.66,1.47,0.75,3,0.3,4.6c-0.45,1.6-1.34,3.02-2.65,4.29c-1.31,1.27-3.04,2.23-5.18,2.91c-2.14,0.67-4.56,0.73-7.26,0.16
		c-1.66-0.4-3.91-2.21-6.76-5.43c-2.85-3.22-5.82-7.19-8.9-11.93c-3.08-4.74-6.1-9.84-9.08-15.3c-2.97-5.46-5.5-10.59-7.57-15.38
		c-2.08-4.79-3.53-8.91-4.36-12.38C111.79,246.06,111.97,244.01,113.16,243.36z"/>
	<path class="st2" d="M306.59,199.81c-0.23,1.37-1.06,2.54-2.49,3.53c-1.43,0.99-3.07,2.02-4.93,3.09
		c-1.86,1.07-3.77,2.24-5.73,3.52c-1.95,1.28-3.55,2.92-4.79,4.91c-1.95,3.18-3.23,6.92-3.85,11.21c-0.61,4.3-0.78,8.39-0.51,12.27
		c0.27,3.88,0.94,7.2,2.01,9.94c1.07,2.75,2.27,4.08,3.62,4c1.71-0.1,3.45-0.99,5.23-2.68c1.77-1.69,3.34-3.61,4.7-5.77
		c1.36-2.16,2.45-4.35,3.29-6.58c0.83-2.23,1.22-3.94,1.15-5.13c-0.07-1.14-0.21-2.74-0.43-4.81c-0.22-2.07-0.31-4.12-0.27-6.15
		c0.04-2.03,0.25-3.8,0.63-5.3c0.38-1.5,1.17-2.34,2.35-2.51c1.13-0.17,2.52-0.52,4.15-1.06c1.63-0.53,3.2-0.68,4.69-0.42
		c1.5,0.25,2.75,1.22,3.75,2.9c1.01,1.68,1.53,4.66,1.56,8.92c0.04,4.36,0.45,8.33,1.22,11.9c0.78,3.57,1.77,6.68,2.99,9.34
		c1.22,2.66,2.62,4.76,4.22,6.31c1.6,1.55,3.26,2.43,4.98,2.64c2.36,0.33,4.29,0.16,5.78-0.52c1.49-0.68,2.72-1.45,3.69-2.32
		c0.96-0.86,1.8-1.62,2.52-2.29c0.72-0.66,1.39-0.86,2.03-0.58c0.74,0.27,0.98,1.15,0.7,2.65c-0.28,1.5-1.03,3.17-2.25,5
		c-1.22,1.84-2.95,3.61-5.19,5.33c-2.24,1.71-4.96,2.89-8.14,3.54c-4.72,1.1-8.8,0.96-12.23-0.43c-3.43-1.39-6.27-3.09-8.52-5.09
		c-2.58-2.45-4.72-5.32-6.42-8.6c-0.89,2.6-2.24,4.91-4.05,6.94c-1.51,1.8-3.49,3.49-5.95,5.06c-2.46,1.57-5.55,2.57-9.27,2.98
		c-3.72,0.32-7.3-0.65-10.73-2.9c-3.43-2.25-6.23-5.39-8.41-9.42c-2.18-4.03-3.5-8.78-3.97-14.24c-0.47-5.46,0.4-11.26,2.59-17.42
		c1.43-4.03,3.46-7.51,6.07-10.44c2.61-2.93,5.44-5.35,8.48-7.27c3.04-1.91,6.1-3.36,9.19-4.35c3.09-0.98,5.87-1.6,8.36-1.84
		c2.48-0.24,4.5-0.18,6.06,0.2C306.04,198.28,306.74,198.92,306.59,199.81z"/>
	<path class="st2" d="M416.91,171.88c-3.25,6.64-6.95,12.1-11.08,16.37c-4.13,4.27-8.1,7.57-11.89,9.91
		c-4.44,2.84-8.93,4.87-13.46,6.1c-1.57,2.55-2.79,5.52-3.64,8.89c-0.75,3.03-1.3,6.7-1.65,10.99c-0.36,4.3-0.08,9.37,0.85,15.22
		c0.57,3.5,1.54,6.24,2.91,8.19c1.37,1.96,2.98,3.34,4.85,4.15c1.87,0.81,3.9,1.17,6.11,1.08c2.21-0.09,4.38-0.43,6.53-1.03
		c2.15-0.6,4.21-1.39,6.18-2.37c1.97-0.98,3.67-1.92,5.11-2.83c2.03-1.26,3.51-1.93,4.44-2.02c0.93-0.09,1.53,0.16,1.81,0.74
		c0.28,0.58,0.27,1.33-0.02,2.24c-0.29,0.92-0.74,1.74-1.36,2.47c-3.13,4.02-6.67,7.28-10.62,9.78c-1.67,1.16-3.55,2.18-5.63,3.07
		c-2.08,0.89-4.28,1.56-6.6,1.99c-2.32,0.43-4.79,0.58-7.4,0.43c-2.62-0.15-5.31-0.77-8.07-1.87c-3.63-1.26-6.66-3.08-9.09-5.46
		c-2.43-2.38-4.41-5.02-5.94-7.93c-1.53-2.91-2.66-6-3.38-9.28c-0.73-3.28-1.26-6.55-1.58-9.81c-0.6-7.54-0.13-15.7,1.4-24.47
		c-0.26,0.13-0.7,0.16-1.33,0.07c-0.54-0.01-1.35-0.16-2.43-0.44c-1.08-0.29-2.59-0.88-4.54-1.77c-1.8-0.68-3-1.55-3.62-2.62
		c-0.61-1.07-0.75-2.05-0.41-2.95c0.34-0.9,1.11-1.66,2.32-2.29c1.21-0.62,2.8-0.89,4.79-0.81c2.2,0.1,3.95,0.03,5.25-0.21
		c1.3-0.24,2.38-0.5,3.23-0.77c0.9-0.42,1.68-0.91,2.34-1.46c0.18-1.41,0.67-3.22,1.47-5.41c0.76-1.88,1.76-4.33,2.98-7.34
		c1.23-3.01,2.91-6.68,5.05-11.02c2.14-4.33,4.56-8.27,7.27-11.83c2.71-3.55,5.71-6.48,9-8.78c3.29-2.3,6.91-3.8,10.85-4.48
		c3.95-0.68,8.24-0.28,12.89,1.19c2.97,1.27,5.25,3.11,6.83,5.52c1.39,1.97,2.21,4.66,2.45,8.09
		C420.35,162.56,419.28,166.81,416.91,171.88z M382.12,189.1c2.25-1.41,4.54-2.97,6.88-4.68c2-1.49,4.14-3.18,6.43-5.07
		c2.29-1.89,4.46-3.84,6.51-5.85c1.49-1.43,2.86-3.01,4.12-4.74c1.25-1.73,2.24-3.4,2.94-5.03c0.71-1.63,0.91-3.13,0.61-4.5
		c-0.3-1.37-1.23-2.42-2.8-3.14c-1.22-0.61-2.52-0.6-3.89,0.03c-1.37,0.63-2.76,1.67-4.18,3.13c-1.42,1.46-2.79,3.2-4.11,5.23
		c-1.33,2.03-2.61,4.13-3.84,6.3C387.88,176.01,384.99,182.11,382.12,189.1z"/>
	<path class="st2" d="M461.24,227.69c-0.9,1.05-2.22,1.64-3.95,1.75c-1.73,0.12-3.67,0.16-5.82,0.12c-2.15-0.04-4.39-0.01-6.72,0.08
		c-2.34,0.1-4.55,0.68-6.63,1.75c-3.31,1.73-6.33,4.27-9.06,7.65c-2.73,3.37-4.98,6.79-6.74,10.27c-1.76,3.47-2.89,6.66-3.39,9.57
		c-0.5,2.9-0.15,4.67,1.05,5.3c1.52,0.79,3.47,0.93,5.86,0.39c2.39-0.54,4.72-1.38,6.99-2.53c2.27-1.15,4.34-2.47,6.21-3.96
		c1.86-1.49,3.07-2.76,3.62-3.81c0.53-1.01,1.23-2.46,2.1-4.35c0.87-1.89,1.85-3.69,2.93-5.41c1.08-1.72,2.16-3.13,3.27-4.22
		c1.1-1.09,2.2-1.41,3.31-0.95c1.06,0.44,2.43,0.85,4.1,1.23c1.67,0.38,3.09,1.06,4.24,2.05c1.15,0.99,1.73,2.46,1.73,4.42
		c0,1.96-1.08,4.78-3.24,8.45c-2.21,3.77-3.9,7.38-5.06,10.84c-1.17,3.46-1.91,6.64-2.24,9.55c-0.32,2.91-0.2,5.44,0.38,7.58
		c0.57,2.15,1.55,3.75,2.92,4.83c1.85,1.5,3.59,2.34,5.23,2.52c1.63,0.18,3.08,0.15,4.36-0.09c1.27-0.24,2.38-0.47,3.34-0.67
		c0.96-0.2,1.64-0.02,2.05,0.54c0.5,0.61,0.24,1.49-0.76,2.63c-1.01,1.14-2.51,2.19-4.5,3.14c-1.99,0.95-4.39,1.58-7.19,1.9
		c-2.8,0.32-5.74-0.06-8.81-1.14c-4.62-1.48-8.04-3.7-10.27-6.65c-2.23-2.96-3.8-5.87-4.69-8.74c-0.96-3.43-1.32-6.99-1.08-10.68
		c-2.1,1.77-4.45,3.06-7.04,3.87c-2.22,0.77-4.79,1.2-7.7,1.28c-2.92,0.08-6.08-0.65-9.48-2.2c-3.36-1.64-5.93-4.31-7.72-8
		c-1.79-3.69-2.58-7.83-2.37-12.41c0.2-4.58,1.51-9.33,3.91-14.26c2.4-4.92,6.13-9.46,11.18-13.61c3.3-2.72,6.83-4.67,10.58-5.84
		c3.75-1.17,7.42-1.8,11.01-1.88c3.59-0.08,6.96,0.25,10.11,0.99c3.15,0.75,5.86,1.65,8.11,2.71c2.25,1.07,3.95,2.16,5.09,3.28
		C461.56,226.1,461.83,227,461.24,227.69z"/>
</g>
<g>
	<path class="st2" d="M159.16,329.28c2.08-0.68,3.85-0.49,5.32,0.54c1.47,1.04,2.76,2.45,3.89,4.25c1.13,1.79,2.13,3.82,3,6.07
		c0.87,2.26,1.73,4.31,2.6,6.16c0.86,1.85,1.81,3.33,2.85,4.44c1.03,1.11,2.28,1.41,3.73,0.89c1.25-0.32,2.19-1.32,2.81-3.01
		c0.62-1.69,1.08-3.76,1.37-6.2c0.29-2.44,0.55-5.14,0.76-8.1c0.21-2.96,0.55-5.9,1.01-8.82c0.4-2.14,1.06-3.89,2-5.26
		c0.94-1.36,1.9-2.44,2.89-3.22c1.07-0.99,2.32-1.65,3.74-1.98c2.02-1.06,4.78-0.44,8.27,1.86c1.49,1.03,3.2,2.39,5.13,4.1
		c1.93,1.7,4.1,3.95,6.51,6.75c2.41,2.8,5.08,6.19,8,10.18c2.93,3.99,6.16,8.77,9.69,14.35c4.96,7.9,8.6,15.56,10.94,22.96
		c2.33,7.4,3.64,14.33,3.9,20.78c0.27,6.45-0.39,12.39-1.98,17.83c-1.59,5.44-3.82,10.17-6.69,14.2c-2.87,4.03-6.25,7.29-10.14,9.77
		c-3.89,2.48-8.08,4.03-12.55,4.65c-4.21,0.56-8.47-0.08-12.78-1.93c-4.31-1.85-8.13-4.54-11.46-8.06
		c-3.33-3.52-5.8-7.75-7.41-12.69c-1.61-4.94-1.74-10.19-0.41-15.75c1.28-5.54,3.54-10.46,6.75-14.75
		c3.22-4.3,6.57-7.83,10.05-10.59c3.48-2.76,6.58-4.68,9.29-5.75c2.71-1.07,4.17-1.24,4.37-0.52c0.36,0.83,0.02,2-1.02,3.53
		c-1.04,1.53-2.37,3.49-3.98,5.9c-1.61,2.41-3.35,5.35-5.22,8.83c-1.87,3.48-3.42,7.57-4.66,12.28c-1.31,4.68-1.27,8.5,0.13,11.44
		c1.4,2.95,3.49,4.68,6.27,5.21c2.77,0.52,5.95-0.42,9.53-2.82c3.58-2.4,6.91-6.65,9.98-12.73c1.51-3.03,2.33-6.3,2.45-9.79
		c0.12-3.5-0.26-7.09-1.15-10.78c-0.89-3.69-2.16-7.36-3.81-11.01c-1.65-3.65-3.48-7.17-5.49-10.58
		c-4.62-7.93-10.32-15.89-17.1-23.87c-0.29,3.71-0.91,7.2-1.86,10.45c-0.83,2.74-2.1,5.46-3.81,8.17c-1.71,2.71-4.07,4.73-7.08,6.04
		c-4.47,1.95-8.48,2.54-12.03,1.78c-3.55-0.77-6.57-2.32-9.07-4.68c-2.5-2.35-4.52-5.2-6.04-8.56c-1.52-3.36-2.6-6.59-3.24-9.7
		c-0.63-3.11-0.78-5.83-0.45-8.18C157.33,331.01,158.05,329.65,159.16,329.28z"/>
	<path class="st2" d="M270.99,293.5c5.44,2.18,9.88,5.21,13.32,9.08c3.44,3.87,5.97,8.12,7.57,12.74c1.61,4.62,2.3,9.37,2.07,14.25
		c-0.23,4.88-1.28,9.45-3.16,13.71c-1.87,4.25-4.52,7.94-7.93,11.06c-3.42,3.12-7.57,5.16-12.46,6.11
		c-6.2,1.18-11.66,0.72-16.39-1.4c-4.73-2.11-8.59-5.17-11.6-9.17c-3.01-4-5.14-8.55-6.4-13.66s-1.54-10.07-0.84-14.87
		c0.7-4.8,2.49-9.11,5.35-12.92c2.87-3.81,6.83-6.31,11.9-7.51c4.69-1.19,8.04-2.31,10.04-3.35c2-1.05,3.43-1.95,4.29-2.72
		c0.86-0.77,1.47-1.29,1.83-1.57C268.92,293,269.73,293.08,270.99,293.5z M254.68,310.78c-0.57,0.74-0.85,2.38-0.85,4.91
		c0.01,2.53,0.22,5.47,0.64,8.81c0.42,3.35,1.04,6.82,1.88,10.41c0.84,3.6,1.8,6.85,2.9,9.75c1.1,2.91,2.35,5.23,3.75,6.98
		c1.41,1.75,2.85,2.39,4.33,1.92c1.48-0.47,2.76-1.72,3.83-3.73c1.08-2.02,1.95-4.43,2.62-7.24c0.67-2.81,1.09-5.85,1.24-9.14
		c0.16-3.28,0.06-6.44-0.31-9.47c-0.37-3.03-1.03-5.73-2.01-8.09c-0.97-2.36-2.2-4.09-3.68-5.18c-3.57-2.56-6.42-3.79-8.55-3.69
		C258.36,307.13,256.42,308.38,254.68,310.78z"/>
	<path class="st2" d="M380.81,341.44c2.45-0.84,4.29-1.2,5.53-1.06c1.24,0.14,1.99,0.6,2.26,1.39c0.27,0.79,0.1,1.71-0.51,2.76
		c-0.6,1.05-1.6,2-2.98,2.87c-1.72,1.11-3.41,2.26-5.06,3.45c-1.65,1.19-3.4,2.46-5.24,3.79c-1.85,1.34-3.86,2.81-6.04,4.42
		c-2.18,1.61-4.59,3.46-7.23,5.57c0.45,5.13,0.55,10.34,0.3,15.61c-0.25,5.27-0.92,10.29-2.01,15.05
		c-1.09,4.76-2.64,9.12-4.63,13.08c-2,3.96-4.56,7.13-7.7,9.53c-4.37,3.37-8.68,5.19-12.93,5.46c-4.24,0.27-7.93-0.68-11.05-2.86
		c-3.12-2.18-5.47-5.35-7.05-9.53c-1.58-4.17-1.78-9.01-0.61-14.51c1.23-5.55,3.31-10.41,6.25-14.57c2.94-4.16,5.99-7.62,9.15-10.38
		c3.67-3.21,7.6-5.92,11.79-8.13c-0.02-1.33-0.12-2.98-0.3-4.96c-0.1-1.6-0.36-3.56-0.76-5.87c-0.4-2.31-0.92-5.09-1.55-8.32
		c-0.4-1.89-0.96-3.69-1.67-5.42c-0.71-1.72-1.42-3.22-2.13-4.49c-0.86-1.44-1.68-2.74-2.45-3.91c-1.88,1.84-3.8,3.46-5.75,4.87
		c-1.62,1.17-3.38,2.2-5.27,3.11c-1.9,0.91-3.66,1.31-5.3,1.2c-1.75-0.12-3.65-1.03-5.72-2.74c-2.06-1.71-3.84-3.97-5.32-6.78
		c-1.48-2.81-2.57-6.07-3.24-9.79c-0.68-3.71-0.56-7.59,0.35-11.62c1.07-4.07,2.29-7.31,3.65-9.72c1.36-2.41,2.79-4.3,4.29-5.69
		c1.5-1.39,3.08-2.34,4.74-2.87c1.66-0.53,3.32-0.92,4.98-1.18c2.41-0.26,5.23,0.26,8.46,1.57c3.23,1.31,6.29,2.91,9.16,4.81
		c2.87,1.9,5.31,3.8,7.31,5.72c1.99,1.92,2.91,3.37,2.73,4.37c-0.17,0.94-1.36,1.21-3.56,0.8s-4.74-0.93-7.59-1.55
		c-2.86-0.62-5.66-1.02-8.41-1.21c-2.75-0.19-4.74,0.53-5.97,2.15c-1.18,1.67-2.17,3.55-2.97,5.62c-0.8,2.07-1.36,4.13-1.65,6.19
		c-0.3,2.05-0.29,3.95,0.01,5.7c0.31,1.75,1.03,3.17,2.18,4.25c0.6,0.57,1.5,0.43,2.7-0.41c1.2-0.85,2.6-1.9,4.2-3.14
		c1.6-1.25,3.37-2.43,5.3-3.55c1.94-1.12,3.97-1.74,6.11-1.86c2.13-0.12,4.29,0.57,6.48,2.07c2.18,1.5,4.34,4.29,6.45,8.37
		c1.27,2.37,2.56,5.53,3.86,9.47c1.3,3.94,2.37,8.71,3.22,14.29c1.43-0.75,3.09-1.69,4.97-2.81c1.88-1.12,3.78-2.24,5.69-3.36
		c1.91-1.12,3.8-2.16,5.67-3.12C377.83,342.58,379.45,341.88,380.81,341.44z M338.42,402.2c0.81-1.75,1.39-4.07,1.74-6.94
		c0.35-2.87,0.63-5.71,0.82-8.52c0.11-3.29,0.19-6.71,0.22-10.27c-2.41,1.8-4.56,3.73-6.45,5.78c-1.66,1.69-3.14,3.76-4.44,6.2
		c-1.31,2.44-1.95,5.06-1.93,7.88c0.03,2.71,0.49,4.72,1.39,6.03c0.89,1.31,1.9,2.08,3.03,2.32c1.13,0.24,2.23,0.1,3.3-0.41
		C337.16,403.76,337.94,403.07,338.42,402.2z"/>
	<path class="st2" d="M435,313.69c-0.71,1.22-1.93,2.06-3.65,2.5c-1.72,0.44-3.66,0.84-5.82,1.19c-2.16,0.36-4.41,0.8-6.74,1.33
		c-2.33,0.53-4.44,1.52-6.34,2.99c-3,2.35-5.57,5.47-7.69,9.36c-2.12,3.9-3.75,7.75-4.87,11.57c-1.13,3.82-1.67,7.23-1.63,10.24
		c0.04,3.01,0.72,4.72,2.03,5.13c1.67,0.52,3.66,0.29,5.96-0.69c2.3-0.98,4.49-2.26,6.56-3.84c2.07-1.58,3.91-3.29,5.5-5.12
		c1.6-1.84,2.58-3.34,2.94-4.51c0.34-1.11,0.78-2.7,1.31-4.76c0.52-2.06,1.17-4.05,1.94-5.98c0.76-1.93,1.6-3.54,2.5-4.85
		c0.9-1.3,1.95-1.82,3.15-1.56c1.14,0.24,2.6,0.4,4.35,0.47c1.75,0.07,3.3,0.5,4.64,1.27c1.34,0.78,2.19,2.15,2.55,4.12
		c0.36,1.97-0.21,5-1.7,9.09c-1.52,4.19-2.55,8.14-3.08,11.83c-0.53,3.69-0.69,7.03-0.48,10.01c0.21,2.98,0.81,5.5,1.78,7.55
		c0.97,2.05,2.25,3.49,3.83,4.31c2.14,1.16,4.04,1.68,5.72,1.57c1.67-0.12,3.13-0.42,4.36-0.9c1.23-0.48,2.31-0.91,3.23-1.29
		c0.92-0.38,1.64-0.32,2.16,0.17c0.61,0.52,0.52,1.45-0.28,2.79c-0.8,1.33-2.12,2.66-3.94,3.98c-1.82,1.32-4.12,2.4-6.87,3.24
		c-2.76,0.84-5.78,1-9.06,0.48c-4.91-0.63-8.76-2.23-11.55-4.79c-2.79-2.56-4.9-5.2-6.33-7.92c-1.6-3.27-2.62-6.78-3.07-10.53
		c-1.78,2.17-3.9,3.9-6.35,5.19c-2.09,1.19-4.59,2.09-7.51,2.71c-2.91,0.62-6.23,0.47-9.94-0.46c-3.68-1.03-6.76-3.23-9.23-6.61
		c-2.48-3.38-4.04-7.39-4.69-12.03c-0.64-4.64-0.21-9.66,1.29-15.05c1.51-5.39,4.41-10.64,8.71-15.75c2.81-3.35,6-5.96,9.55-7.83
		c3.55-1.87,7.12-3.18,10.71-3.93c3.59-0.75,7.04-1.04,10.35-0.87c3.31,0.16,6.19,0.57,8.66,1.23c2.46,0.65,4.37,1.44,5.72,2.36
		C435.02,312.04,435.46,312.9,435,313.69z"/>
</g>
</svg>
