<?xml version="1.0" encoding="utf-8"?>
<!-- Generator: Adobe Illustrator 25.4.1, SVG Export Plug-In . SVG Version: 6.00 Build 0)  -->
<svg version="1.1" id="Layer_1" xmlns="http://www.w3.org/2000/svg" xmlns:xlink="http://www.w3.org/1999/xlink" x="0px" y="0px"
	 viewBox="0 0 595 595.28" style="enable-background:new 0 0 595 595.28;" xml:space="preserve">
<style type="text/css">
	.st0{fill:#F1ECE1;}
	.st1{fill:#FFFFFF;}
	.st2{fill:#6A8241;}
	.st3{fill:#FFEEC5;}
	.st4{fill:#F9AD82;}
</style>
<rect x="728.9" y="-33.61" class="st0" width="594.69" height="594.69"/>
<rect x="0.5" y="0.68" class="st0" width="594.5" height="594.5"/>
<polygon class="st1" points="260.28,330.19 270.86,286.37 292.85,272.32 335.51,311.67 333.98,335.31 "/>
<g>
	<path class="st2" d="M547.35,297.93c0,28.56-13.1,54.25-21.59,79.85c-8.63,26.01-13.8,55.06-29.69,76.46
		c-15.56,20.97-39.94,31.93-61.03,46.99c-20.31,14.51-39.34,34.94-63.48,42.64c-22.95,7.31-48.53,1.49-73.81,1.49
		s-50.86,5.83-73.81-1.49c-24.14-7.69-43.17-28.13-63.48-42.64c-21.09-15.06-45.47-26.03-61.03-46.99
		c-15.89-21.4-21.06-50.45-29.69-76.46c-8.49-25.6-21.59-51.29-21.59-79.85c0-28.56,13.1-54.25,21.59-79.85
		c8.63-26.01,13.8-55.06,29.69-76.46c15.56-20.97,39.94-31.93,61.03-46.99c20.31-14.51,39.34-34.94,63.48-42.64
		c22.95-7.31,48.53-1.49,73.81-1.49c25.28,0,50.86-5.83,73.81,1.49c24.14,7.69,43.17,28.13,63.48,42.64
		c21.09,15.06,45.47,26.03,61.03,46.99c15.89,21.4,21.06,50.45,29.69,76.46C534.25,243.68,547.35,269.37,547.35,297.93z"/>
	<g>
		<g>
			<g>
				<g>
					<g>
						<g>
							<path class="st3" d="M158.53,301.12c7.61-7.75,15.22-15.5,22.83-23.25c1.24-1.26,2.52-2.59,3.15-4.35
								c0.64-1.76,0.42-4.09-0.94-5.18c-1.76-1.41-4.15-0.06-5.92,1.34c-10.74,8.47-20.29,18.94-28.17,30.89
								c6.66-14.43,12.42-29.83,13.51-46.13c0.24-3.58,0.23-7.29-0.92-10.62c-1.15-3.34-3.67-6.24-6.76-6.65
								c-3.46-0.46-6.66,2.21-8.99,5.2c-10.35,13.28-10.31,33.12-9.69,50.98c-2.21-6.14-4.45-12.34-7.82-17.73
								c-3.37-5.39-8.02-9.97-13.6-11.63c-1.25-0.37-2.62-0.58-3.82-0.03c-3.04,1.4-3.1,6.36-2.21,10
								c5.28,21.7,23.26,36.03,33.6,54.35C145.44,316.73,150.65,309.15,158.53,301.12z"/>
							<path class="st3" d="M155.84,352.89c5.07-6.73,10.62-13.03,14.86-20.49c1.47-2.59,2.71-6.29,0.85-8.53
								c-0.66-0.8-1.61-1.21-2.57-1.28c-3.26-0.21-5.7,3.25-7.49,6.41c-7.49,13.24-15.55,29.22-17.41,45.17
								c0.77-3.74,3.09-7.63,4.74-10.65C150.89,359.75,153.31,356.25,155.84,352.89z"/>
							<path class="st3" d="M143.9,374.1c-6.25-11.38-8.69-25.12-14.92-36.51c-1.6-2.92-3.48-5.71-5.93-7.7
								c-0.98-0.79-2.08-1.47-3.28-1.57c-1.19-0.11-2.49,0.46-3.08,1.66c-0.4,0.81-0.45,1.81-0.35,2.74
								c0.24,2.42,1.29,4.62,2.37,6.72c5.73,11.1,12.91,21.19,21.22,29.84C141.22,370.61,142.97,372.4,143.9,374.1z"/>
							<path class="st3" d="M165.46,377.1c2.11-1.96,4.46-3.68,7.11-4.33c0.77-0.19,1.64-0.27,2.3,0.24
								c1.23,0.94,0.94,3.1,0.33,4.65c-1.72,4.37-4.83,7.77-7.91,10.99c-7.22,7.54-14.73,15.63-22.9,21.78
								c0.72-1.51,3.04-6.23,3.95-7.87c1.69-3.06,3.34-6.15,5.07-9.18C156.83,387.41,160.6,381.61,165.46,377.1z"/>
							<path class="st3" d="M141.86,407.43c-8.82-6.59-17.41-14.24-22.79-24.66c-0.62-1.2-1.21-2.5-1.19-3.89
								c0.02-1.39,0.87-2.87,2.08-2.95c0.58-0.04,1.14,0.24,1.65,0.57c1.88,1.21,3.34,3.1,4.77,4.96
								c6.79,8.86,14.26,18.07,18.62,28.91C144.02,409.25,143.02,408.3,141.86,407.43z"/>
						</g>
					</g>
				</g>
			</g>
			<g>
				<g>
					<g>
						<g>
							<path class="st3" d="M436.97,301.12c-7.61-7.75-15.22-15.5-22.83-23.25c-1.24-1.26-2.52-2.59-3.15-4.35
								c-0.64-1.76-0.42-4.09,0.94-5.18c1.76-1.41,4.15-0.06,5.92,1.34c10.74,8.47,20.29,18.94,28.17,30.89
								c-6.66-14.43-12.42-29.83-13.51-46.13c-0.24-3.58-0.23-7.29,0.92-10.62c1.15-3.34,3.67-6.24,6.76-6.65
								c3.46-0.46,6.66,2.21,8.99,5.2c10.35,13.28,10.31,33.12,9.69,50.98c2.21-6.14,4.45-12.34,7.82-17.73
								c3.37-5.39,8.02-9.97,13.6-11.63c1.25-0.37,2.62-0.58,3.82-0.03c3.04,1.4,3.1,6.36,2.21,10
								c-5.28,21.7-23.26,36.03-33.6,54.35C450.06,316.73,444.85,309.15,436.97,301.12z"/>
							<path class="st3" d="M439.65,352.89c-5.07-6.73-10.62-13.03-14.86-20.49c-1.47-2.59-2.71-6.29-0.85-8.53
								c0.66-0.8,1.61-1.21,2.57-1.28c3.26-0.21,5.7,3.25,7.49,6.41c7.49,13.24,15.55,29.22,17.41,45.17
								c-0.77-3.74-3.09-7.63-4.74-10.65C444.61,359.75,442.18,356.25,439.65,352.89z"/>
							<path class="st3" d="M451.59,374.1c6.25-11.38,8.69-25.12,14.92-36.51c1.6-2.92,3.48-5.71,5.93-7.7
								c0.98-0.79,2.08-1.47,3.28-1.57c1.19-0.11,2.49,0.46,3.08,1.66c0.4,0.81,0.45,1.81,0.35,2.74c-0.24,2.42-1.29,4.62-2.37,6.72
								c-5.73,11.1-12.91,21.19-21.22,29.84C454.28,370.61,452.52,372.4,451.59,374.1z"/>
							<path class="st3" d="M430.04,377.1c-2.11-1.96-4.46-3.68-7.11-4.33c-0.77-0.19-1.64-0.27-2.3,0.24
								c-1.23,0.94-0.94,3.1-0.33,4.65c1.72,4.37,4.83,7.77,7.91,10.99c7.22,7.54,14.73,15.63,22.9,21.78
								c-0.72-1.51-3.04-6.23-3.95-7.87c-1.69-3.06-3.34-6.15-5.07-9.18C438.67,387.41,434.9,381.61,430.04,377.1z"/>
							<path class="st3" d="M453.64,407.43c8.82-6.59,17.41-14.24,22.79-24.66c0.62-1.2,1.21-2.5,1.19-3.89
								c-0.02-1.39-0.87-2.87-2.08-2.95c-0.58-0.04-1.14,0.24-1.65,0.57c-1.88,1.21-3.34,3.1-4.77,4.96
								c-6.79,8.86-14.26,18.07-18.62,28.91C451.47,409.25,452.48,408.3,453.64,407.43z"/>
						</g>
					</g>
				</g>
			</g>
		</g>
		<g>
			<path class="st3" d="M221.4,319.29c3.72,1.48,3.53,2.45,7.53,2.45c4,0,4-2.54,8.01-2.54c4,0,4,2.54,8,2.54c4,0,4-2.54,8.01-2.54
				c4,0,4,2.54,8.01,2.54c4,0,4-2.54,8.01-2.54c4,0,4,2.54,8.01,2.54c4,0,4-2.54,8.01-2.54c4,0,4,2.54,8.01,2.54
				c4,0,4-2.54,8.01-2.54c4,0,4,2.54,8.01,2.54c4,0,4-2.54,8.01-2.54c4,0,4,2.54,8.01,2.54c4,0,4-2.54,8.01-2.54
				c4,0,4,2.54,8.01,2.54c4,0,4-2.54,8.01-2.54c4.01,0,4.01,2.54,8.01,2.54s3.83-0.89,7.52-2.44c4.3-1.81,2.03-2.28,2.14-8.13
				c0.05-2.66-2.47-5.81-2.53-9.34c-0.05-2.87,2.39-6.09,2.22-9.41c-0.15-2.96-2.88-5.91-3.16-9.14c-0.26-3,1.95-6.37,1.56-9.55
				c-0.37-3.02-3.32-5.75-3.84-8.88c-0.5-3.03,1.41-6.57,0.76-9.64c-0.65-3.02-3.83-5.46-4.65-8.48c-0.81-3,0.72-6.72-0.27-9.67
				c-1-2.96-4.46-4.98-5.66-7.84c-1.21-2.89-0.23-6.79-1.67-9.53c-1.45-2.78-5.21-4.18-6.91-6.76c-1.73-2.61-1.56-6.63-3.56-8.99
				c-2.02-2.38-5.99-2.85-8.31-4.92c-2.31-2.06-3.25-5.97-5.88-7.67c-2.58-1.67-6.51-0.93-9.41-2.2c-2.78-1.22-4.88-4.64-7.97-5.46
				c-2.91-0.77-6.44,1.13-9.64,0.75c-3.21-0.38-6.45-2.8-9.58-2.28c-3.09,0.51-5.43,3.85-8.41,5.16c-2.82,1.24-6.83,0.62-9.53,2.51
				c-2.52,1.76-3.38,5.75-5.77,8.03c-2.23,2.12-6.25,2.73-8.36,5.25c-1.98,2.37-1.89,6.45-3.75,9.15c-1.76,2.56-5.61,3.9-7.25,6.72
				c-1.57,2.69-0.85,6.71-2.3,9.62c-1.4,2.8-5.03,4.63-6.31,7.61c-1.24,2.88-0.06,6.79-1.18,9.82c-1.09,2.95-4.52,5.15-5.49,8.22
				c-0.95,3.01,0.59,6.78-0.23,9.88c-0.81,3.06-4.03,5.55-4.72,8.69c-0.68,3.09,1.18,6.71,0.63,9.87c-0.55,3.13-3.54,5.89-3.96,9.06
				c-0.42,3.15,1.75,6.6,1.47,9.78c-0.28,3.17-3.02,6.18-3.16,9.37C219.73,314.04,221.39,316.1,221.4,319.29z"/>
			<polygon class="st3" points="183.84,453.1 165.5,437.54 236.15,363.95 246.94,319.55 312.31,354.86 360.21,311.92 373.2,382.51 
				434.74,433.01 404.44,471.99 			"/>
			<path class="st4" d="M298.01,245.4v149.27h-35.95c0,0,8.14-15.23,3.27-36.15c-4.87-20.92-11.33-45.45-9.82-53.07
				s14-32.83,14-32.83s16.47-2.66,18.3-20.73S298.01,245.4,298.01,245.4z"/>
			<path class="st4" d="M297.48,245.4v149.27h35.95c0,0-8.14-15.23-3.27-36.15c4.87-20.92,11.33-45.45,9.82-53.07
				s-14-32.83-14-32.83s-16.47-2.66-18.3-20.73S297.48,245.4,297.48,245.4z"/>
			<path class="st2" d="M263.63,390.96l34.2-0.12V492.9c0,0-143.5,17.76-150.04-23.86c-5.08-32.28,27.03-39.15,36.3-40.73
				c5.84-0.99,22.07-3.53,33.28-5.27c7.37-1.15,14.05-4.88,18.8-10.5L263.63,390.96z"/>
			<path class="st2" d="M331.9,390.96l-34.42-0.12V492.9c0,0,143.5,17.76,150.04-23.86c5.08-32.28-27.03-39.15-36.3-40.73
				c-5.84-0.99-22.07-3.53-33.28-5.27c-7.37-1.15-14.05-4.88-18.8-10.5L331.9,390.96z"/>
			<g>
				<path class="st4" d="M304.22,461.51l-3.94,30.99l31.38-2.17c0,0,46.69-0.1,45.94-2.57c-0.74-2.46-27.56-15.61-29.4-17.66
					c-1.84-2.05-6.21-9.58-9.83-9.16c-3.62,0.42-10.08,6.13-10.08,6.13L304.22,461.51z"/>
			</g>
			<g>
				<g>
					<path class="st4" d="M252.23,282.72c0,0-7.37-1.57-16.2,19.88c-8.83,21.45-13.38,74.71-13.38,74.71l-54.82,48.81l5.62,11.42
						c0,0,62.38-37.61,65.53-45.19c3.15-7.57,18.93-61.05,18.93-61.05L252.23,282.72z"/>
					<path class="st4" d="M167.84,426.12c0,0-2.59,0.94-4.86,0.94c-2.26,0-17.31-0.05-17.54,1.13c-0.24,1.18,3.91,2.78,5.61,3.35
						c1.7,0.57,3.87,1.65,3.87,1.65l-1.46,3.16c0,0-2-0.9-2.48-0.47c-0.47,0.42,0.07,1.72,0.07,1.72l-2.17-1.01
						c0,0,0.99-4.29-0.42-5.42s-2.12-0.33-2.12-0.33s-1.37-0.75-1.89-0.09c-0.52,0.66,0.38,4.39,0.38,4.39s-1.7,0.14-1.65,1.08
						c0.05,0.94,3.16,3.35,3.16,3.35s2.83,3.54,3.68,3.73c0.85,0.19,8.72,0.28,9.24,0.09c0.52-0.19,1.08-0.94,1.08-0.94
						s5.8-0.9,7.07-1.37c1.27-0.47,8.77-5.19,8.77-5.19L167.84,426.12z"/>
					<path class="st4" d="M167.41,441.07c0,0-6.55,1.46-7.07,1.37c-0.52-0.09-5.66-0.99-7.07-2.31c-0.64-0.6-1.33-1.18-1.84-1.9
						c-0.32-0.44-1.17-2.01-0.35-2.39c0.71-0.33,1.9,0.33,2.56,0.56c1.8,0.61,3.85,1.09,5.76,1.09c0.52,0,6.7-2.69,6.7-2.69"/>
					<path class="st4" d="M160.34,442.43c-0.02,0.07-0.75,0.99-1.34,0.99c-0.59,0-8.7-1.51-9.36-2.03
						c-0.66-0.52-6.77-3.65-6.53-5.33c0.24-1.67,4.1-0.2,4.48-0.05c1.23,0.5,3.49,1.7,3.49,1.7"/>
					<path class="st4" d="M144.5,435.28c0,0-1.05-4.33-0.24-4.69c0.81-0.36,1.59-0.1,2.28,0.95c0.69,1.05,2.09,5.02,2.09,5.02"/>
				</g>
			</g>
			<g>
				<g>
					<path class="st4" d="M343.26,282.72c0,0,7.37-1.57,16.2,19.88c8.83,21.45,15.75,74.71,15.75,74.71l52.45,48.81l-5.62,11.42
						c0,0-62.38-37.61-65.53-45.19c-3.15-7.57-18.93-61.05-18.93-61.05L343.26,282.72z"/>
					<path class="st4" d="M427.66,426.12c0,0,2.59,0.94,4.86,0.94c2.26,0,17.31-0.05,17.54,1.13c0.24,1.18-3.91,2.78-5.61,3.35
						s-3.87,1.65-3.87,1.65l1.46,3.16c0,0,2-0.9,2.48-0.47c0.47,0.42-0.07,1.72-0.07,1.72l2.17-1.01c0,0-0.99-4.29,0.42-5.42
						s2.12-0.33,2.12-0.33s1.37-0.75,1.89-0.09c0.52,0.66-0.38,4.39-0.38,4.39s1.7,0.14,1.65,1.08c-0.05,0.94-3.16,3.35-3.16,3.35
						s-2.83,3.54-3.68,3.73c-0.85,0.19-8.72,0.28-9.24,0.09c-0.52-0.19-1.08-0.94-1.08-0.94s-5.8-0.9-7.07-1.37
						c-1.27-0.47-8.77-5.19-8.77-5.19L427.66,426.12z"/>
					<path class="st4" d="M428.08,441.07c0,0,6.55,1.46,7.07,1.37c0.52-0.09,5.66-0.99,7.07-2.31c0.64-0.6,1.33-1.18,1.84-1.9
						c0.32-0.44,1.17-2.01,0.35-2.39c-0.71-0.33-1.9,0.33-2.56,0.56c-1.8,0.61-3.85,1.09-5.76,1.09c-0.52,0-6.7-2.69-6.7-2.69"/>
					<path class="st4" d="M435.16,442.43c0.02,0.07,0.75,0.99,1.34,0.99c0.59,0,8.7-1.51,9.36-2.03c0.66-0.52,6.77-3.65,6.53-5.33
						c-0.24-1.67-4.1-0.2-4.48-0.05c-1.23,0.5-3.49,1.7-3.49,1.7"/>
					<path class="st4" d="M450.99,435.28c0,0,1.05-4.33,0.24-4.69c-0.81-0.36-1.59-0.1-2.28,0.95c-0.69,1.05-2.09,5.02-2.09,5.02"/>
				</g>
			</g>
			<path class="st2" d="M355.73,293.45c-10.1-15.14-23.5-17.81-29.74-20.83c-1.85,8.92-5.36,17.46-10.31,24.99
				c-2.27,3.47-15.05,11.97-17.12,12.5c-0.53,0.14-1.08,0.14-1.62,0c-2.07-0.53-14.85-9.03-17.12-12.5
				c-4.95-7.53-8.46-16.07-10.31-24.99c-6.25,3.02-19.64,5.69-29.74,20.83c-1.19,0.98-12.34,22.85-11.68,35.14l25.57,9.01
				c0,0,7.78,1.82,10.86,19.48c0.11,0.6,1.31,5.96,1.73,10.04c0.3,2.98,0.61,5.98,0.52,8.57l-0.12,1.52
				c0.98,0.27,12.09,2.24,23.59,3.36c5,0.49,10.03,0.49,15.03,0c11.5-1.12,22.62-3.19,23.6-3.46l-0.1-1.37
				c-0.22-2.29,0.19-5.64,0.5-8.63c0.41-4.08,1.62-9.44,1.73-10.04c3.09-17.66,10.86-19.48,10.86-19.48l25.57-9.01
				C368.07,316.3,356.92,294.43,355.73,293.45z"/>
			<path class="st3" d="M268.6,219.71c1.52,1.26,2.9,2.42,4.23,3.87c1.33-0.42,2.63-1.26,3.39-2.43c2.44-3.77,2.9-8.74,1.19-12.9
				c4.97-0.07,10.26-1.75,14.03-4.98c3.77-3.23,6.1-8.29,5.43-13.22c-0.1-0.77-0.29-1.55-0.7-2.21c-1.08-1.72-3.38-2.18-5.41-2.2
				c-5.8-0.06-11.42,2.06-16.53,4.82c-2.39,1.29-4.76,2.78-6.29,5.02c-1.84,2.69-2.23,6.1-2.33,9.36c-0.15,4.6-0.18,9.34,0.58,13.88
				C266.85,218.8,268.1,219.29,268.6,219.71z"/>
			<path class="st4" d="M323.24,219.13c0,16.44-7.58,38.66-25.23,38.66c-19.48,0-25.23-22.23-25.23-38.66s11.29-20.86,25.23-20.86
				S323.24,202.69,323.24,219.13z"/>
			<g>
				<path class="st2" d="M314.7,219.5c-0.16,0-0.33-0.05-0.47-0.17c-0.06-0.05-4.73-3.72-11.23-2.43c-0.4,0.08-0.79-0.18-0.87-0.58
					s0.18-0.79,0.58-0.87c7.21-1.43,12.24,2.57,12.45,2.74c0.32,0.26,0.37,0.73,0.11,1.05C315.13,219.41,314.92,219.5,314.7,219.5z"
					/>
			</g>
			<path class="st3" d="M271.53,219.54c0.49,0.64,0.93,1.23,1.36,1.97c0.43-0.22,0.84-0.64,1.09-1.24c0.78-1.92,0.93-4.46,0.38-6.58
				c1.59-0.04,3.29-0.89,4.5-2.54c1.21-1.65,1.96-4.23,1.74-6.74c-0.03-0.39-0.09-0.79-0.22-1.13c-0.35-0.88-1.08-1.11-1.73-1.12
				c-1.86-0.03-3.66,1.05-5.3,2.46c-0.76,0.66-1.53,1.42-2.02,2.56c-0.59,1.37-0.71,3.11-0.75,4.78c-0.05,2.35-0.06,4.76,0.19,7.08
				C270.97,219.08,271.37,219.33,271.53,219.54z"/>
			<path class="st3" d="M221.24,322.56c0.19,0.23,0.41,0.45,0.66,0.65c1.1,0.88,2.59,1.06,4,1.05c1.72-0.01,3.5-0.3,4.81-1.5
				c1.14-1.05,1.95-2.04,3.58-2.3c3.29-0.54,3.7,1.96,6.99,1.42c3.29-0.54,2.92-3.22,6.23-3.59c3.39-0.03,6.71,1.85,8.81,0.87
				c2.66-1.24,2.8-4.94,4.14-7.51c1.15-2.2,4.33-3.94,5.09-6.96c0.63-2.47-1.25-5.79-0.56-8.73c1.25-5.31,3.72-4.73,4.97-10.04
				c1.25-5.31-1.22-5.89,0.04-11.2c1.25-5.31,3.72-4.73,4.97-10.04c1.25-5.31,5.48-7.22,0.67-9.8c-5.89-3.15-6.02,0.44-12.12,3.15
				c-6.1,2.71-5.07,5.03-11.18,7.75c-6.11,2.71-7.14,0.4-13.24,3.11c-6.11,2.71-6.58,2.11-10.7,7.37c-3.76,4.8-3.01,5.11-3.77,11.15
				c-0.76,6.05,1.76,6.36,1,12.41c-0.76,6.05-2.56,5.71-4.01,11.63C220.87,314.57,218.85,319.66,221.24,322.56z"/>
			
				<ellipse transform="matrix(0.9833 -0.1819 0.1819 0.9833 -36.7403 53.2977)" class="st4" cx="272.17" cy="226.93" rx="5.2" ry="6.59"/>
			<g>
				<path class="st2" d="M293.13,216.84c0.37,0.07,0.73-0.17,0.8-0.54c0.07-0.37-0.17-0.73-0.54-0.8
					c-7.19-1.42-12.19,2.56-12.4,2.73c-0.29,0.24-0.34,0.67-0.1,0.96c0.13,0.17,0.33,0.25,0.53,0.25c0.15,0,0.3-0.05,0.43-0.15
					C281.9,219.25,286.6,215.55,293.13,216.84z"/>
				<path class="st2" d="M290.74,226.02c-0.04,0.01-4.38,0.59-7.35-0.51c-0.35-0.13-0.75,0.05-0.88,0.4
					c-0.13,0.35,0.05,0.75,0.4,0.88c0.21,0.08,0.43,0.15,0.66,0.22l1.33,0.3c0.56,0.1,1.12,0.16,1.67,0.19l1.37,0.05
					c0.03,0,0.06,0,0.09,0c0.47,0,0.89-0.01,1.27-0.03l1.4-0.12c0.12-0.01,0.2-0.03,0.22-0.03c0.37-0.05,0.63-0.4,0.58-0.77
					S291.12,225.97,290.74,226.02z"/>
				<path class="st2" d="M313.4,226.29c-0.09-0.37-0.46-0.59-0.83-0.49c-3.07,0.78-7.32-0.26-7.36-0.27
					c-0.37-0.09-0.74,0.13-0.83,0.5c-0.09,0.37,0.13,0.74,0.5,0.83c0.02,0.01,0.1,0.02,0.22,0.05l1.38,0.27
					c0.4,0.06,0.86,0.13,1.35,0.18l1.36,0.1c0.23,0.01,0.46,0.02,0.7,0.02c0.33,0,0.65-0.01,0.98-0.03l1.36-0.16
					c0.23-0.04,0.45-0.09,0.67-0.14C313.28,227.03,313.5,226.66,313.4,226.29z"/>
				<path class="st2" d="M302.64,243.21c-0.04,0.02-4.46,2.43-9.68,0.15c-0.35-0.15-0.75,0.01-0.9,0.35
					c-0.15,0.35,0.01,0.75,0.35,0.9c1.89,0.82,3.68,1.11,5.23,1.11c3.27,0,5.53-1.24,5.67-1.32c0.33-0.19,0.44-0.6,0.26-0.93
					C303.39,243.14,302.97,243.02,302.64,243.21z"/>
			</g>
			<path class="st3" d="M300.26,193.07c-1.34,1.12-2.57,2.14-4.05,3.06c0.16,1.23,0.67,2.5,1.57,3.35
				c2.89,2.74,7.16,3.94,11.05,3.12c-0.74,4.34-0.13,9.22,2.08,13.03c2.21,3.81,6.25,6.66,10.64,6.87c0.69,0.03,1.4,0,2.04-0.25
				c1.68-0.66,2.44-2.59,2.79-4.36c0.98-5.05,0.04-10.29-1.53-15.19c-0.74-2.29-1.66-4.6-3.36-6.3c-2.05-2.04-4.96-2.93-7.79-3.54
				c-3.99-0.87-8.11-1.66-12.19-1.73C301.34,191.69,300.71,192.7,300.26,193.07z"/>
			
				<ellipse transform="matrix(0.1819 -0.9833 0.9833 0.1819 42.1818 504.5588)" class="st4" cx="324.32" cy="226.93" rx="6.59" ry="5.2"/>
		</g>
		<g>
			<g>
				<path class="st3" d="M137.9,188.36c0.55-0.85,1.25-1.48,2.09-1.89c0.84-0.41,1.76-0.64,2.77-0.7c1-0.06,2.04,0.03,3.13,0.26
					c1.08,0.23,2.12,0.51,3.12,0.85c2.41,0.82,4.97,2.03,7.69,3.62c-0.29-0.53-0.57-1.2-0.84-2.01c-0.53-1.16-1.13-3.06-1.79-5.72
					c-0.31-1.28-0.56-2.57-0.74-3.87c-0.18-1.3-0.14-2.59,0.11-3.88c0.25-1.29,0.78-2.53,1.58-3.72c0.8-1.19,2.04-2.34,3.7-3.43
					c1.55-1.08,3.08-1.71,4.59-1.89c1.51-0.18,2.98-0.1,4.4,0.25c1.43,0.35,2.83,0.86,4.2,1.52c1.37,0.66,2.72,1.28,4.03,1.85
					c2.53,1.27,4.07,1.92,4.59,1.97c0.53,0.05,0.04-1.01-1.47-3.16c-0.84-1.13-1.69-2.53-2.54-4.2s-1.45-3.36-1.81-5.06
					c-0.36-1.7-0.38-3.28-0.04-4.73c0.34-1.45,1.27-2.55,2.8-3.29c1.05-0.48,2.29-0.77,3.71-0.88c1.42-0.1,2.95,0,4.59,0.32
					c1.64,0.32,3.34,0.82,5.1,1.5c1.76,0.69,3.5,1.56,5.22,2.62c1.78,1.07,3.31,1.9,4.59,2.47c1.28,0.58,2.39,0.9,3.33,0.96
					c0.95,0.06,1.75-0.18,2.4-0.73c0.65-0.55,1.25-1.41,1.79-2.59c0.4-0.9,0.91-1.33,1.56-1.32c0.64,0.02,1.15,0.36,1.52,1.01
					c0.37,0.65,0.5,1.58,0.38,2.77c-0.12,1.19-0.69,2.5-1.73,3.93c-0.99,1.36-2.23,2.35-3.73,2.98c-1.49,0.63-3.09,1.01-4.78,1.16
					c-1.69,0.15-3.42,0.11-5.18-0.1c-1.77-0.21-3.44-0.51-5.03-0.9c-1.59-0.39-2.99-0.78-4.2-1.18c-1.21-0.4-2.14-0.71-2.79-0.92
					c-0.97-0.29-1.36-0.07-1.17,0.66c0.19,0.73,0.64,1.71,1.36,2.95c0.71,1.24,1.53,2.59,2.46,4.04c0.93,1.46,1.69,2.79,2.28,3.99
					c0.56,1.21,1.05,2.43,1.46,3.67c0.41,1.24,0.55,2.39,0.42,3.45c-0.13,1.06-0.65,1.97-1.57,2.75c-0.91,0.77-2.41,1.29-4.48,1.54
					c-1.38,0.18-2.88,0.06-4.51-0.37c-1.62-0.43-3.27-1-4.94-1.72c-1.67-0.72-3.31-1.51-4.92-2.38c-1.61-0.87-3.1-1.71-4.46-2.55
					c-1.36-0.83-2.54-1.53-3.54-2.09c-1-0.56-1.73-0.92-2.2-1.07c-1.38-0.26-2.27,0.32-2.68,1.74c-0.41,1.43-0.25,3.79,0.49,7.08
					c0.33,1.62,1.2,3.23,2.61,4.85c1.41,1.62,2.95,3.13,4.62,4.54c1.67,1.4,3.26,2.63,4.79,3.68c1.53,1.05,2.62,1.81,3.26,2.28
					c0.65,0.47,1.07,1.11,1.27,1.91c0.2,0.8,0.18,1.64-0.08,2.51c-0.25,0.87-0.76,1.72-1.52,2.55c-0.76,0.82-1.79,1.45-3.09,1.88
					c-0.82,0.24-2.24,0.02-4.27-0.66c-2.03-0.68-4.31-1.66-6.82-2.94c-2.51-1.28-5.09-2.73-7.73-4.35c-2.65-1.62-5.01-3.21-7.1-4.76
					c-2.09-1.55-3.74-2.97-4.97-4.26C137.98,189.86,137.54,188.93,137.9,188.36z"/>
				<path class="st3" d="M210.6,121.37c0.24,0.65,0.17,1.36-0.19,2.15c-0.37,0.78-0.82,1.64-1.36,2.56
					c-0.54,0.93-1.07,1.91-1.6,2.95c-0.53,1.04-0.81,2.15-0.85,3.31c-0.05,1.86,0.33,3.79,1.13,5.8c0.81,2.01,1.75,3.82,2.84,5.43
					c1.09,1.61,2.2,2.87,3.35,3.8c1.14,0.92,2,1.2,2.56,0.83c0.71-0.47,1.25-1.29,1.59-2.46c0.35-1.17,0.55-2.39,0.59-3.66
					c0.05-1.27-0.02-2.49-0.22-3.66c-0.2-1.17-0.46-2.01-0.78-2.5c-0.31-0.48-0.77-1.13-1.38-1.97c-0.61-0.84-1.16-1.7-1.65-2.59
					c-0.49-0.89-0.84-1.7-1.05-2.45c-0.21-0.74-0.08-1.3,0.39-1.67c0.45-0.35,0.96-0.85,1.53-1.49c0.57-0.64,1.21-1.09,1.92-1.35
					c0.71-0.26,1.49-0.16,2.34,0.32c0.85,0.48,1.82,1.63,2.9,3.46c1.1,1.88,2.27,3.49,3.49,4.84c1.22,1.35,2.43,2.45,3.62,3.29
					c1.19,0.85,2.32,1.4,3.39,1.67c1.07,0.27,2.01,0.24,2.81-0.1c1.1-0.44,1.89-1,2.37-1.67s0.81-1.31,1.02-1.92
					c0.2-0.61,0.37-1.15,0.52-1.62c0.14-0.47,0.39-0.72,0.73-0.76c0.39-0.07,0.71,0.26,0.96,0.97c0.25,0.72,0.34,1.62,0.27,2.72
					c-0.07,1.1-0.38,2.3-0.92,3.59c-0.54,1.3-1.42,2.49-2.63,3.56c-1.76,1.65-3.56,2.6-5.39,2.86c-1.83,0.25-3.48,0.23-4.95-0.08
					c-1.73-0.42-3.37-1.12-4.91-2.12c0.26,1.35,0.25,2.68-0.02,4.01c-0.2,1.15-0.64,2.38-1.31,3.67c-0.67,1.29-1.76,2.49-3.26,3.6
					c-1.53,1.06-3.32,1.54-5.36,1.42c-2.04-0.12-4.03-0.78-5.98-1.98c-1.95-1.2-3.7-2.92-5.26-5.16c-1.56-2.24-2.63-4.96-3.22-8.17
					c-0.39-2.1-0.38-4.11,0.02-6.02c0.4-1.92,1.02-3.67,1.85-5.25c0.83-1.58,1.8-2.97,2.89-4.17c1.09-1.19,2.14-2.15,3.15-2.88
					c1.01-0.72,1.9-1.2,2.67-1.42C209.99,120.84,210.45,120.94,210.6,121.37z"/>
				<path class="st3" d="M251.3,81.82c0.25,3.68,0.01,6.96-0.71,9.83c-0.72,2.87-1.61,5.29-2.67,7.24
					c-1.21,2.33-2.64,4.33-4.29,5.99c-0.04,1.49,0.17,3.08,0.64,4.75c0.43,1.49,1.11,3.21,2.02,5.16c0.92,1.95,2.3,4.07,4.16,6.36
					c1.12,1.37,2.22,2.31,3.3,2.81c1.08,0.51,2.12,0.7,3.13,0.59c1.01-0.11,1.98-0.47,2.91-1.05c0.93-0.59,1.79-1.28,2.57-2.07
					c0.78-0.79,1.47-1.65,2.08-2.56c0.61-0.91,1.11-1.75,1.5-2.49c0.56-1.05,1.04-1.71,1.41-1.98c0.38-0.27,0.7-0.31,0.96-0.13
					c0.26,0.18,0.45,0.5,0.55,0.97c0.1,0.47,0.11,0.94,0.03,1.4c-0.35,2.51-1.07,4.8-2.15,6.87c-0.43,0.92-0.99,1.83-1.67,2.73
					c-0.68,0.9-1.46,1.74-2.35,2.5c-0.89,0.76-1.92,1.44-3.09,2.03c-1.17,0.59-2.49,0.99-3.95,1.2c-1.88,0.36-3.64,0.33-5.29-0.09
					c-1.64-0.42-3.16-1.07-4.54-1.95c-1.38-0.88-2.64-1.93-3.77-3.17c-1.13-1.24-2.17-2.52-3.13-3.85
					c-2.14-3.11-3.97-6.75-5.49-10.92c-0.08,0.12-0.26,0.24-0.56,0.36c-0.24,0.13-0.62,0.27-1.16,0.41
					c-0.54,0.14-1.34,0.27-2.4,0.37c-0.95,0.15-1.68,0.08-2.22-0.23c-0.53-0.31-0.83-0.7-0.91-1.17c-0.08-0.47,0.07-0.99,0.43-1.57
					c0.37-0.57,0.99-1.08,1.87-1.54c0.98-0.5,1.72-0.97,2.22-1.4c0.5-0.43,0.9-0.81,1.2-1.14c0.28-0.41,0.5-0.81,0.65-1.22
					c-0.28-0.65-0.51-1.56-0.71-2.71c-0.14-1-0.32-2.31-0.54-3.92c-0.22-1.61-0.41-3.61-0.56-6.02c-0.16-2.4-0.09-4.71,0.19-6.92
					c0.28-2.21,0.85-4.22,1.7-6.03c0.85-1.82,2.04-3.36,3.57-4.64c1.54-1.28,3.49-2.18,5.87-2.7c1.6-0.19,3.04,0.04,4.32,0.68
					c1.09,0.5,2.11,1.46,3.08,2.88C250.47,76.94,251.06,79.04,251.3,81.82z M240.56,97.92c0.62-1.17,1.22-2.41,1.81-3.73
					c0.49-1.14,1-2.4,1.51-3.79c0.52-1.39,0.97-2.77,1.36-4.15c0.29-0.99,0.49-2.01,0.6-3.07c0.11-1.06,0.12-2.03,0.02-2.91
					c-0.1-0.88-0.38-1.58-0.86-2.1c-0.47-0.52-1.14-0.74-1.99-0.66c-0.68,0.04-1.24,0.37-1.67,0.98c-0.44,0.61-0.78,1.41-1.03,2.39
					c-0.25,0.98-0.41,2.08-0.47,3.28c-0.07,1.21-0.1,2.43-0.09,3.68C239.79,90.83,240.06,94.19,240.56,97.92z"/>
				<path class="st3" d="M284.35,94.89c-0.13,0.68-0.55,1.26-1.27,1.74c-0.72,0.48-1.55,0.98-2.48,1.5
					c-0.94,0.52-1.9,1.09-2.88,1.71c-0.98,0.62-1.79,1.43-2.43,2.41c-1,1.57-1.67,3.42-2.01,5.56c-0.34,2.14-0.46,4.18-0.36,6.11
					c0.1,1.94,0.41,3.6,0.92,4.98c0.51,1.38,1.1,2.05,1.77,2.03c0.85-0.03,1.73-0.46,2.63-1.29c0.9-0.83,1.7-1.77,2.39-2.84
					c0.7-1.06,1.26-2.15,1.69-3.25c0.43-1.11,0.64-1.96,0.61-2.55c-0.02-0.57-0.08-1.37-0.17-2.4c-0.09-1.03-0.12-2.05-0.08-3.07
					c0.04-1.01,0.16-1.89,0.36-2.64c0.2-0.75,0.6-1.16,1.19-1.23c0.57-0.07,1.26-0.24,2.08-0.49c0.82-0.25,1.6-0.31,2.34-0.17
					c0.74,0.14,1.36,0.63,1.85,1.48c0.49,0.85,0.72,2.33,0.7,4.46c-0.02,2.18,0.16,4.16,0.51,5.94c0.36,1.79,0.83,3.35,1.41,4.68
					c0.58,1.34,1.27,2.4,2.05,3.18c0.78,0.78,1.6,1.24,2.46,1.36c1.17,0.19,2.13,0.11,2.89-0.21c0.75-0.33,1.37-0.7,1.86-1.12
					c0.49-0.42,0.91-0.79,1.27-1.12c0.36-0.33,0.7-0.42,1.02-0.27c0.37,0.14,0.48,0.58,0.33,1.33c-0.15,0.74-0.54,1.57-1.16,2.48
					c-0.62,0.91-1.5,1.78-2.63,2.61c-1.13,0.84-2.5,1.4-4.09,1.7c-2.36,0.51-4.39,0.4-6.09-0.32c-1.7-0.72-3.1-1.59-4.2-2.61
					c-1.27-1.24-2.31-2.69-3.13-4.34c-0.47,1.29-1.16,2.43-2.08,3.43c-0.77,0.89-1.77,1.71-3.01,2.47
					c-1.24,0.76-2.79,1.23-4.64,1.41c-1.86,0.13-3.64-0.38-5.33-1.53c-1.69-1.15-3.06-2.74-4.12-4.77
					c-1.05-2.03-1.67-4.41-1.86-7.13c-0.19-2.72,0.29-5.61,1.44-8.66c0.75-2,1.79-3.72,3.11-5.16c1.33-1.44,2.76-2.62,4.29-3.55
					c1.53-0.93,3.07-1.63,4.62-2.09c1.55-0.46,2.94-0.75,4.18-0.85c1.24-0.1,2.24-0.05,3.02,0.15
					C284.09,94.12,284.44,94.44,284.35,94.89z"/>
			</g>
			<g>
				<path class="st3" d="M339.36,98.38c0.96,0.36,1.56,0.95,1.79,1.76c0.23,0.81,0.29,1.71,0.18,2.71
					c-0.11,0.99-0.34,2.03-0.68,3.11c-0.34,1.08-0.63,2.09-0.85,3.03c-0.23,0.93-0.31,1.76-0.26,2.47c0.05,0.71,0.42,1.19,1.11,1.42
					c0.55,0.25,1.19,0.16,1.92-0.28c0.73-0.44,1.5-1.06,2.33-1.87c0.83-0.81,1.71-1.73,2.66-2.75c0.95-1.02,1.94-2.01,2.96-2.94
					c0.77-0.67,1.54-1.12,2.28-1.34c0.75-0.23,1.42-0.34,2.01-0.33c0.68-0.05,1.34,0.08,1.96,0.37c1.05,0.21,1.89,1.24,2.5,3.11
					c0.25,0.82,0.47,1.82,0.68,3.01c0.21,1.19,0.34,2.66,0.41,4.39c0.06,1.74,0.05,3.77-0.05,6.09c-0.1,2.33-0.31,5.03-0.65,8.12
					c-0.5,4.36-1.41,8.25-2.73,11.65c-1.32,3.41-2.87,6.33-4.67,8.78c-1.8,2.45-3.79,4.44-5.97,5.97c-2.18,1.53-4.39,2.62-6.63,3.25
					c-2.24,0.64-4.44,0.84-6.6,0.61c-2.16-0.23-4.15-0.89-5.98-1.98c-1.71-1.03-3.09-2.52-4.13-4.46c-1.04-1.95-1.65-4.06-1.84-6.33
					c-0.19-2.27,0.15-4.55,1.01-6.84c0.86-2.29,2.35-4.26,4.48-5.91c2.1-1.66,4.37-2.8,6.82-3.44c2.44-0.63,4.71-0.95,6.81-0.94
					c2.09,0.01,3.79,0.21,5.11,0.62c1.31,0.41,1.9,0.77,1.76,1.09c-0.11,0.41-0.58,0.74-1.41,1c-0.83,0.26-1.9,0.59-3.2,1
					c-1.3,0.41-2.8,0.98-4.51,1.71c-1.71,0.73-3.48,1.78-5.32,3.14c-1.86,1.33-2.96,2.75-3.31,4.25c-0.35,1.5-0.09,2.75,0.77,3.76
					c0.87,1.01,2.31,1.6,4.33,1.77c2.02,0.17,4.49-0.41,7.41-1.75c1.45-0.67,2.71-1.63,3.78-2.88c1.07-1.25,1.99-2.68,2.75-4.3
					c0.76-1.62,1.37-3.34,1.84-5.17s0.83-3.66,1.09-5.5c0.63-4.27,0.88-8.88,0.73-13.8c-1.2,1.28-2.45,2.38-3.76,3.29
					c-1.11,0.76-2.38,1.39-3.8,1.88c-1.43,0.5-2.89,0.54-4.38,0.14c-2.22-0.6-3.86-1.56-4.94-2.88c-1.08-1.32-1.73-2.79-1.96-4.39
					c-0.23-1.6-0.13-3.24,0.3-4.92c0.43-1.68,0.98-3.19,1.66-4.52s1.43-2.37,2.24-3.14C338.18,98.47,338.84,98.19,339.36,98.38z"/>
				<path class="st3" d="M390.98,118.1c1.36,2.4,2.1,4.82,2.23,7.25c0.13,2.43-0.19,4.74-0.96,6.91c-0.77,2.17-1.91,4.12-3.43,5.85
					c-1.52,1.73-3.25,3.1-5.19,4.11c-1.94,1.01-3.99,1.59-6.17,1.73s-4.3-0.33-6.38-1.42c-2.63-1.39-4.5-3.16-5.61-5.33
					c-1.12-2.17-1.64-4.43-1.57-6.78c0.07-2.35,0.62-4.66,1.66-6.9c1.04-2.25,2.39-4.15,4.06-5.71c1.67-1.56,3.59-2.62,5.76-3.17
					c2.17-0.56,4.37-0.31,6.58,0.74c2.07,0.94,3.63,1.51,4.67,1.72c1.04,0.2,1.83,0.29,2.38,0.26c0.54-0.03,0.92-0.04,1.13-0.04
					C390.37,117.31,390.64,117.57,390.98,118.1z M379.91,119.66c-0.43,0.11-1.01,0.62-1.75,1.56c-0.74,0.93-1.53,2.07-2.36,3.43
					c-0.83,1.35-1.62,2.81-2.37,4.38c-0.75,1.57-1.35,3.05-1.8,4.44c-0.45,1.39-0.68,2.61-0.67,3.67c0,1.06,0.35,1.71,1.03,1.98
					c0.68,0.26,1.52,0.18,2.51-0.24s2.02-1.05,3.09-1.89c1.07-0.83,2.12-1.83,3.14-2.99c1.02-1.16,1.91-2.35,2.67-3.57
					c0.76-1.22,1.3-2.41,1.64-3.56c0.34-1.15,0.39-2.15,0.17-2.98c-0.56-1.99-1.25-3.28-2.06-3.87
					C382.33,119.39,381.25,119.28,379.91,119.66z"/>
				<path class="st3" d="M417.25,168c1.15,0.41,1.93,0.82,2.35,1.24c0.41,0.41,0.56,0.81,0.42,1.17c-0.13,0.37-0.47,0.66-1,0.86
					c-0.53,0.21-1.18,0.27-1.94,0.18c-0.96-0.1-1.92-0.17-2.87-0.22c-0.96-0.05-1.97-0.1-3.04-0.15c-1.07-0.05-2.24-0.1-3.52-0.15
					c-1.27-0.05-2.71-0.08-4.3-0.08c-1.34,2.02-2.84,3.96-4.48,5.82c-1.64,1.86-3.36,3.51-5.16,4.94c-1.8,1.43-3.65,2.58-5.55,3.45
					c-1.9,0.87-3.77,1.28-5.63,1.24c-2.6-0.05-4.72-0.64-6.36-1.79c-1.64-1.15-2.71-2.58-3.22-4.3c-0.51-1.72-0.44-3.58,0.21-5.57
					c0.65-2,1.99-3.84,4.04-5.51c2.08-1.68,4.27-2.85,6.58-3.52c2.3-0.66,4.44-1.04,6.42-1.13c2.29-0.1,4.53,0.06,6.72,0.48
					c0.38-0.49,0.83-1.13,1.35-1.91c0.43-0.62,0.92-1.41,1.45-2.38c0.53-0.97,1.16-2.14,1.87-3.51c0.41-0.81,0.73-1.64,0.98-2.48
					c0.25-0.84,0.42-1.6,0.54-2.28c0.11-0.78,0.19-1.5,0.25-2.16c-1.23,0.12-2.41,0.16-3.55,0.1c-0.94-0.05-1.89-0.18-2.85-0.41
					c-0.96-0.22-1.73-0.6-2.3-1.12c-0.61-0.56-1.04-1.45-1.3-2.69c-0.26-1.23-0.24-2.59,0.04-4.06c0.28-1.47,0.84-2.99,1.68-4.55
					c0.84-1.56,2.02-2.95,3.54-4.17c1.59-1.18,2.99-2.01,4.2-2.5c1.21-0.49,2.29-0.76,3.25-0.83c0.96-0.07,1.82,0.04,2.59,0.34
					c0.76,0.29,1.49,0.64,2.18,1.03c0.96,0.61,1.85,1.63,2.65,3.06c0.8,1.43,1.46,2.92,1.96,4.46c0.5,1.54,0.83,2.96,1.01,4.25
					c0.17,1.29,0.08,2.09-0.28,2.41c-0.34,0.3-0.85,0.05-1.54-0.75c-0.69-0.8-1.47-1.73-2.33-2.8c-0.87-1.07-1.78-2.04-2.74-2.92
					c-0.96-0.88-1.9-1.2-2.82-0.96c-0.92,0.27-1.84,0.67-2.74,1.19c-0.9,0.53-1.71,1.12-2.43,1.79c-0.71,0.67-1.27,1.37-1.67,2.1
					c-0.4,0.73-0.55,1.47-0.45,2.21c0.05,0.39,0.42,0.6,1.11,0.64c0.69,0.04,1.51,0.07,2.47,0.08c0.95,0.01,1.95,0.1,2.99,0.25
					c1.04,0.16,1.97,0.53,2.79,1.11c0.82,0.58,1.41,1.47,1.77,2.67c0.36,1.19,0.33,2.85-0.09,4.97c-0.23,1.25-0.68,2.79-1.36,4.62
					c-0.68,1.83-1.69,3.9-3.02,6.2c0.75,0.14,1.63,0.29,2.65,0.43c1.02,0.14,2.05,0.29,3.08,0.44c1.03,0.15,2.03,0.32,3,0.52
					C415.82,167.54,416.62,167.76,417.25,168z M383.81,177.87c0.81-0.41,1.71-1.09,2.68-2.04c0.97-0.95,1.91-1.92,2.8-2.89
					c1.01-1.18,2.04-2.41,3.1-3.71c-1.42-0.05-2.77,0.03-4.07,0.23c-1.11,0.14-2.26,0.46-3.46,0.97c-1.2,0.51-2.21,1.29-3.03,2.33
					c-0.79,1.01-1.21,1.88-1.26,2.63c-0.06,0.74,0.09,1.32,0.43,1.74c0.34,0.42,0.79,0.69,1.33,0.82
					C382.89,178.07,383.38,178.05,383.81,177.87z"/>
				<path class="st3" d="M445.32,173.72c-0.62,0.24-1.31,0.19-2.07-0.15c-0.76-0.34-1.59-0.77-2.49-1.27c-0.9-0.51-1.86-1-2.87-1.49
					c-1.01-0.49-2.08-0.75-3.21-0.76c-1.79-0.02-3.65,0.37-5.58,1.18c-1.93,0.81-3.66,1.75-5.19,2.82
					c-1.54,1.07-2.74,2.16-3.61,3.28c-0.87,1.12-1.12,1.94-0.76,2.48c0.46,0.68,1.26,1.18,2.4,1.5c1.13,0.32,2.31,0.49,3.54,0.52
					c1.22,0.03,2.4-0.06,3.53-0.27c1.13-0.21,1.93-0.47,2.4-0.79c0.45-0.31,1.08-0.76,1.88-1.36c0.8-0.6,1.62-1.14,2.47-1.63
					c0.85-0.48,1.63-0.83,2.34-1.05c0.71-0.21,1.25-0.1,1.62,0.35c0.35,0.43,0.84,0.91,1.46,1.45c0.62,0.54,1.07,1.15,1.33,1.83
					c0.26,0.68,0.17,1.44-0.27,2.27c-0.45,0.83-1.55,1.78-3.3,2.84c-1.79,1.09-3.33,2.24-4.61,3.44c-1.28,1.2-2.32,2.38-3.12,3.54
					c-0.8,1.16-1.32,2.26-1.56,3.3c-0.25,1.04-0.2,1.94,0.14,2.71c0.44,1.06,0.99,1.81,1.64,2.26c0.65,0.45,1.27,0.77,1.87,0.95
					c0.59,0.19,1.11,0.34,1.57,0.48c0.45,0.13,0.7,0.36,0.74,0.7c0.07,0.37-0.24,0.69-0.92,0.94c-0.69,0.25-1.56,0.36-2.62,0.31
					c-1.06-0.05-2.22-0.33-3.48-0.83c-1.26-0.5-2.42-1.33-3.47-2.49c-1.62-1.68-2.57-3.39-2.84-5.15c-0.27-1.76-0.27-3.35,0-4.77
					c0.37-1.67,1.03-3.26,1.97-4.77c-1.29,0.27-2.58,0.29-3.86,0.04c-1.12-0.18-2.3-0.58-3.56-1.21c-1.25-0.63-2.43-1.66-3.52-3.09
					c-1.05-1.46-1.53-3.17-1.45-5.14c0.08-1.97,0.69-3.9,1.81-5.8c1.13-1.89,2.76-3.61,4.9-5.15c2.14-1.54,4.75-2.62,7.83-3.23
					c2.02-0.4,3.95-0.43,5.81-0.07c1.85,0.36,3.55,0.92,5.09,1.71c1.54,0.78,2.89,1.69,4.06,2.72c1.17,1.03,2.11,2.03,2.82,2.99
					c0.71,0.96,1.18,1.81,1.41,2.55C445.82,173.12,445.73,173.57,445.32,173.72z"/>
			</g>
		</g>
	</g>
</g>
</svg>
